<?xml version="1.0" encoding="utf-8"?>
<!-- Generator: Adobe Illustrator 16.0.0, SVG Export Plug-In . SVG Version: 6.00 Build 0)  -->
<!DOCTYPE svg PUBLIC "-//W3C//DTD SVG 1.1//EN" "http://www.w3.org/Graphics/SVG/1.1/DTD/svg11.dtd">
<svg version="1.1" id="Layer_1" xmlns="http://www.w3.org/2000/svg" xmlns:xlink="http://www.w3.org/1999/xlink" x="0px" y="0px"
	 width="137.885px" height="92.106px" viewBox="0 0 137.885 92.106" enable-background="new 0 0 137.885 92.106"
	 xml:space="preserve">
<g>
	<path d="M5.586,0.624C5.778,0.096,5.842,0,5.938,0c0.096,0,0.16,0.08,0.352,0.576c0.24,0.608,2.753,7.219,3.729,9.652
		c0.576,1.425,1.041,1.681,1.376,1.777c0.24,0.08,0.48,0.096,0.64,0.096c0.096,0,0.16,0.016,0.16,0.096
		c0,0.096-0.144,0.128-0.32,0.128c-0.24,0-1.409,0-2.513-0.032c-0.304-0.016-0.48-0.016-0.48-0.112c0-0.064,0.048-0.096,0.112-0.112
		c0.096-0.032,0.192-0.176,0.096-0.432L7.603,7.699C7.571,7.635,7.539,7.603,7.459,7.603H4.018c-0.08,0-0.128,0.048-0.16,0.128
		l-0.96,2.833c-0.144,0.4-0.224,0.785-0.224,1.073c0,0.32,0.336,0.464,0.608,0.464h0.16c0.112,0,0.16,0.032,0.16,0.096
		c0,0.096-0.096,0.128-0.24,0.128c-0.384,0-1.072-0.048-1.249-0.048s-1.057,0.048-1.809,0.048C0.096,12.325,0,12.293,0,12.197
		c0-0.064,0.064-0.096,0.144-0.096c0.112,0,0.336-0.016,0.464-0.032c0.736-0.096,1.056-0.705,1.344-1.505L5.586,0.624z M7.251,7.027
		c0.08,0,0.08-0.048,0.064-0.112L5.794,2.593c-0.08-0.24-0.16-0.24-0.24,0L4.146,6.915c-0.032,0.08,0,0.112,0.048,0.112H7.251z"/>
	<path d="M14.481,4.866c0-2.497,0-2.945-0.032-3.457c-0.032-0.544-0.16-0.801-0.688-0.913c-0.128-0.032-0.4-0.048-0.544-0.048
		c-0.064,0-0.128-0.032-0.128-0.096c0-0.096,0.08-0.128,0.256-0.128c0.72,0,1.729,0.048,1.809,0.048
		c0.176,0,1.393-0.048,1.889-0.048c1.008,0,2.081,0.096,2.929,0.704c0.4,0.288,1.104,1.072,1.104,2.177
		c0,1.185-0.496,2.369-1.937,3.698c1.312,1.681,2.401,3.105,3.33,4.098c0.864,0.912,1.553,1.088,1.953,1.152
		c0.304,0.048,0.528,0.048,0.625,0.048c0.08,0,0.144,0.048,0.144,0.096c0,0.096-0.096,0.128-0.384,0.128h-1.136
		c-0.896,0-1.297-0.08-1.713-0.304c-0.688-0.368-1.249-1.152-2.161-2.353c-0.672-0.88-1.424-1.953-1.745-2.369
		c-0.064-0.064-0.112-0.096-0.208-0.096l-1.969-0.032c-0.08,0-0.112,0.048-0.112,0.128v0.384c0,1.537,0,2.801,0.08,3.473
		c0.048,0.464,0.144,0.816,0.625,0.88c0.224,0.032,0.576,0.064,0.72,0.064c0.096,0,0.128,0.048,0.128,0.096
		c0,0.08-0.08,0.128-0.256,0.128c-0.88,0-1.889-0.048-1.969-0.048c-0.016,0-1.024,0.048-1.505,0.048
		c-0.176,0-0.256-0.032-0.256-0.128c0-0.048,0.032-0.096,0.128-0.096c0.144,0,0.336-0.032,0.48-0.064
		c0.32-0.064,0.4-0.416,0.464-0.88c0.08-0.672,0.08-1.937,0.08-3.473V4.866z M15.762,6.258c0,0.08,0.032,0.144,0.112,0.192
		c0.24,0.144,0.977,0.256,1.681,0.256c0.384,0,0.833-0.048,1.201-0.304c0.56-0.384,0.976-1.249,0.976-2.465
		c0-2.001-1.056-3.201-2.769-3.201c-0.48,0-0.912,0.048-1.072,0.096c-0.08,0.032-0.128,0.096-0.128,0.192V6.258z"/>
	<path d="M26.897,10.82c-1.553-1.393-1.937-3.217-1.937-4.738c0-1.073,0.368-2.945,1.793-4.37C27.713,0.752,29.169,0,31.635,0
		c0.64,0,1.537,0.048,2.321,0.192c0.608,0.112,1.121,0.208,1.633,0.24c0.176,0.016,0.208,0.08,0.208,0.176
		c0,0.128-0.048,0.32-0.08,0.896c-0.032,0.528-0.032,1.409-0.048,1.649c-0.016,0.24-0.048,0.336-0.144,0.336
		c-0.112,0-0.128-0.112-0.128-0.336c0-0.625-0.256-1.281-0.672-1.633c-0.561-0.48-1.793-0.913-3.202-0.913
		c-2.129,0-3.121,0.625-3.681,1.168C26.673,2.897,26.4,4.322,26.4,5.954c0,3.058,2.353,5.858,5.778,5.858
		c1.201,0,2.145-0.144,2.785-0.8c0.336-0.352,0.544-1.056,0.592-1.344c0.032-0.176,0.064-0.24,0.16-0.24
		c0.08,0,0.112,0.112,0.112,0.24c0,0.112-0.192,1.504-0.352,2.049c-0.096,0.304-0.128,0.336-0.416,0.464
		c-0.64,0.256-1.857,0.368-2.881,0.368C29.778,12.549,28.161,11.957,26.897,10.82z"/>
	<path d="M49.333,7.683c0,1.537,0,2.801,0.08,3.473c0.048,0.464,0.144,0.816,0.624,0.88c0.224,0.032,0.576,0.064,0.72,0.064
		c0.096,0,0.128,0.048,0.128,0.096c0,0.08-0.08,0.128-0.256,0.128c-0.88,0-1.889-0.048-1.969-0.048s-1.088,0.048-1.568,0.048
		c-0.176,0-0.256-0.032-0.256-0.128c0-0.048,0.032-0.096,0.128-0.096c0.144,0,0.336-0.032,0.48-0.064
		c0.32-0.064,0.4-0.416,0.464-0.88c0.08-0.672,0.08-1.937,0.08-3.473V6.002c0-0.064-0.048-0.096-0.096-0.096h-6.787
		c-0.048,0-0.096,0.016-0.096,0.096v1.681c0,1.537,0,2.801,0.08,3.473c0.048,0.464,0.144,0.816,0.624,0.88
		c0.224,0.032,0.576,0.064,0.72,0.064c0.096,0,0.128,0.048,0.128,0.096c0,0.08-0.08,0.128-0.256,0.128
		c-0.88,0-1.889-0.048-1.969-0.048s-1.088,0.048-1.569,0.048c-0.176,0-0.256-0.032-0.256-0.128c0-0.048,0.032-0.096,0.128-0.096
		c0.144,0,0.336-0.032,0.48-0.064c0.32-0.064,0.4-0.416,0.464-0.88c0.08-0.672,0.08-1.937,0.08-3.473V4.866
		c0-2.497,0-2.945-0.032-3.457c-0.032-0.544-0.16-0.801-0.688-0.913c-0.128-0.032-0.4-0.048-0.544-0.048
		c-0.064,0-0.128-0.032-0.128-0.096c0-0.096,0.08-0.128,0.256-0.128c0.72,0,1.729,0.048,1.809,0.048s1.088-0.048,1.568-0.048
		c0.176,0,0.256,0.032,0.256,0.128c0,0.064-0.064,0.096-0.128,0.096c-0.112,0-0.208,0.016-0.4,0.048
		c-0.432,0.08-0.56,0.352-0.592,0.913c-0.032,0.512-0.032,0.96-0.032,3.457v0.336c0,0.08,0.048,0.096,0.096,0.096h6.787
		c0.048,0,0.096-0.016,0.096-0.096V4.866c0-2.497,0-2.945-0.032-3.457c-0.032-0.544-0.16-0.801-0.688-0.913
		c-0.128-0.032-0.4-0.048-0.544-0.048c-0.064,0-0.128-0.032-0.128-0.096c0-0.096,0.08-0.128,0.256-0.128
		c0.72,0,1.729,0.048,1.809,0.048s1.088-0.048,1.569-0.048c0.176,0,0.256,0.032,0.256,0.128c0,0.064-0.064,0.096-0.128,0.096
		c-0.112,0-0.208,0.016-0.4,0.048c-0.432,0.08-0.56,0.352-0.592,0.913c-0.032,0.512-0.032,0.96-0.032,3.457V7.683z"/>
	<path d="M56.37,7.683c0,1.537,0,2.801,0.08,3.473c0.048,0.464,0.144,0.816,0.624,0.88c0.224,0.032,0.576,0.064,0.72,0.064
		c0.096,0,0.128,0.048,0.128,0.096c0,0.08-0.08,0.128-0.256,0.128c-0.88,0-1.889-0.048-1.969-0.048s-1.088,0.048-1.569,0.048
		c-0.176,0-0.256-0.032-0.256-0.128c0-0.048,0.032-0.096,0.128-0.096c0.144,0,0.336-0.032,0.48-0.064
		c0.32-0.064,0.4-0.416,0.464-0.88c0.08-0.672,0.08-1.937,0.08-3.473V4.866c0-2.497,0-2.945-0.032-3.457
		c-0.032-0.544-0.192-0.816-0.544-0.896c-0.176-0.048-0.384-0.064-0.496-0.064c-0.064,0-0.128-0.032-0.128-0.096
		c0-0.096,0.08-0.128,0.256-0.128c0.528,0,1.537,0.048,1.617,0.048s1.088-0.048,1.568-0.048c0.176,0,0.256,0.032,0.256,0.128
		c0,0.064-0.064,0.096-0.128,0.096c-0.112,0-0.208,0.016-0.4,0.048c-0.432,0.08-0.56,0.352-0.592,0.913
		c-0.032,0.512-0.032,0.96-0.032,3.457V7.683z"/>
	<path d="M65.474,7.683c0,1.537,0,2.801,0.08,3.473c0.048,0.464,0.144,0.816,0.625,0.88c0.224,0.032,0.576,0.064,0.72,0.064
		c0.096,0,0.128,0.048,0.128,0.096c0,0.08-0.08,0.128-0.256,0.128c-0.88,0-1.889-0.048-1.969-0.048s-1.088,0.048-1.569,0.048
		c-0.176,0-0.256-0.032-0.256-0.128c0-0.048,0.032-0.096,0.128-0.096c0.144,0,0.336-0.032,0.48-0.064
		c0.32-0.064,0.4-0.416,0.464-0.88c0.08-0.672,0.08-1.937,0.08-3.473V0.912l-2.369,0.032c-0.992,0.016-1.376,0.128-1.632,0.512
		c-0.176,0.272-0.224,0.384-0.272,0.496c-0.048,0.128-0.096,0.16-0.16,0.16c-0.048,0-0.08-0.048-0.08-0.144
		c0-0.16,0.32-1.537,0.352-1.665C60,0.208,60.064,0,60.128,0c0.112,0,0.272,0.16,0.704,0.192c0.464,0.048,1.072,0.08,1.265,0.08
		H68.1c0.512,0,0.88-0.032,1.136-0.08c0.24-0.032,0.384-0.08,0.448-0.08c0.08,0,0.08,0.096,0.08,0.192
		c0,0.48-0.048,1.584-0.048,1.761c0,0.144-0.048,0.208-0.112,0.208c-0.08,0-0.112-0.048-0.128-0.272L69.46,1.825
		c-0.048-0.48-0.432-0.849-1.969-0.88l-2.017-0.032V7.683z"/>
	<path d="M73.121,4.866c0-2.497,0-2.945-0.032-3.457c-0.032-0.544-0.16-0.801-0.688-0.913c-0.128-0.032-0.4-0.048-0.544-0.048
		c-0.064,0-0.128-0.032-0.128-0.096c0-0.096,0.08-0.128,0.256-0.128c0.368,0,0.8,0,1.152,0.016l0.656,0.032
		c0.112,0,3.297,0,3.666-0.016c0.304-0.016,0.56-0.048,0.688-0.08c0.08-0.016,0.144-0.08,0.224-0.08
		c0.048,0,0.064,0.064,0.064,0.145c0,0.112-0.08,0.304-0.128,0.752c-0.016,0.16-0.048,0.864-0.08,1.057
		c-0.016,0.08-0.048,0.176-0.112,0.176c-0.096,0-0.128-0.08-0.128-0.208c0-0.112-0.016-0.384-0.096-0.576
		c-0.112-0.256-0.272-0.448-1.137-0.544c-0.272-0.032-2.017-0.048-2.193-0.048c-0.064,0-0.096,0.048-0.096,0.16v4.418
		c0,0.112,0.016,0.16,0.096,0.16c0.208,0,2.177,0,2.545-0.032c0.384-0.032,0.608-0.064,0.752-0.224
		c0.112-0.128,0.176-0.208,0.24-0.208c0.048,0,0.08,0.032,0.08,0.128s-0.08,0.368-0.128,0.896c-0.032,0.32-0.064,0.912-0.064,1.024
		c0,0.128,0,0.304-0.112,0.304c-0.08,0-0.112-0.064-0.112-0.144c0-0.16,0-0.32-0.064-0.528c-0.064-0.224-0.208-0.496-0.832-0.561
		c-0.432-0.048-2.017-0.08-2.289-0.08c-0.08,0-0.112,0.048-0.112,0.112v1.409c0,0.544-0.016,2.401,0,2.737
		c0.048,1.104,0.288,1.312,1.856,1.312c0.417,0,1.121,0,1.537-0.176c0.417-0.176,0.608-0.496,0.72-1.152
		c0.032-0.176,0.064-0.24,0.144-0.24c0.096,0,0.096,0.128,0.096,0.24c0,0.128-0.128,1.216-0.208,1.552
		c-0.112,0.417-0.24,0.417-0.864,0.417c-1.201,0-2.081-0.032-2.705-0.048c-0.625-0.032-1.008-0.048-1.249-0.048
		c-0.032,0-0.304,0-0.64,0.016c-0.32,0-0.688,0.032-0.929,0.032c-0.176,0-0.256-0.032-0.256-0.128c0-0.048,0.032-0.096,0.128-0.096
		c0.144,0,0.336-0.032,0.48-0.064c0.32-0.064,0.4-0.416,0.464-0.88c0.08-0.672,0.08-1.937,0.08-3.473V4.866z"/>
	<path d="M82.993,10.82c-1.553-1.393-1.937-3.217-1.937-4.738c0-1.073,0.368-2.945,1.793-4.37C83.809,0.752,85.265,0,87.73,0
		c0.64,0,1.537,0.048,2.321,0.192c0.608,0.112,1.12,0.208,1.633,0.24c0.176,0.016,0.208,0.08,0.208,0.176
		c0,0.128-0.048,0.32-0.08,0.896c-0.032,0.528-0.032,1.409-0.048,1.649c-0.017,0.24-0.048,0.336-0.144,0.336
		c-0.113,0-0.129-0.112-0.129-0.336c0-0.625-0.256-1.281-0.672-1.633c-0.561-0.48-1.793-0.913-3.202-0.913
		c-2.129,0-3.121,0.625-3.681,1.168c-1.168,1.121-1.441,2.545-1.441,4.178c0,3.058,2.353,5.858,5.778,5.858
		c1.201,0,2.145-0.144,2.786-0.8c0.336-0.352,0.544-1.056,0.592-1.344c0.032-0.176,0.064-0.24,0.16-0.24
		c0.08,0,0.111,0.112,0.111,0.24c0,0.112-0.191,1.504-0.352,2.049c-0.096,0.304-0.128,0.336-0.416,0.464
		c-0.641,0.256-1.857,0.368-2.881,0.368C85.874,12.549,84.257,11.957,82.993,10.82z"/>
	<path d="M99.089,7.683c0,1.537,0,2.801,0.08,3.473c0.049,0.464,0.145,0.816,0.625,0.88c0.224,0.032,0.576,0.064,0.72,0.064
		c0.097,0,0.128,0.048,0.128,0.096c0,0.08-0.08,0.128-0.256,0.128c-0.881,0-1.889-0.048-1.969-0.048s-1.088,0.048-1.568,0.048
		c-0.176,0-0.256-0.032-0.256-0.128c0-0.048,0.031-0.096,0.127-0.096c0.145,0,0.336-0.032,0.48-0.064
		c0.32-0.064,0.4-0.416,0.465-0.88c0.08-0.672,0.08-1.937,0.08-3.473V0.912l-2.369,0.032C94.384,0.96,94,1.072,93.744,1.457
		c-0.176,0.272-0.225,0.384-0.272,0.496c-0.048,0.128-0.096,0.16-0.16,0.16c-0.048,0-0.079-0.048-0.079-0.144
		c0-0.16,0.319-1.537,0.352-1.665C93.615,0.208,93.679,0,93.744,0c0.111,0,0.271,0.16,0.704,0.192
		c0.464,0.048,1.072,0.08,1.265,0.08h6.002c0.513,0,0.881-0.032,1.137-0.08c0.24-0.032,0.385-0.08,0.448-0.08
		c0.08,0,0.08,0.096,0.08,0.192c0,0.48-0.048,1.584-0.048,1.761c0,0.144-0.049,0.208-0.112,0.208c-0.08,0-0.112-0.048-0.128-0.272
		l-0.016-0.176c-0.049-0.48-0.433-0.849-1.969-0.88l-2.018-0.032V7.683z"/>
	<path d="M105.808,4.866c0-2.497,0-2.945-0.033-3.457c-0.031-0.544-0.16-0.801-0.688-0.913c-0.129-0.032-0.4-0.048-0.545-0.048
		c-0.063,0-0.127-0.032-0.127-0.096c0-0.096,0.08-0.128,0.256-0.128c0.72,0,1.696,0.048,1.84,0.048c0.145,0,1.105-0.048,1.585-0.048
		c0.177,0,0.257,0.032,0.257,0.128c0,0.064-0.064,0.096-0.129,0.096c-0.111,0-0.207,0.016-0.4,0.048
		c-0.432,0.064-0.56,0.352-0.592,0.913c-0.031,0.512-0.031,0.96-0.031,3.457v2.241c0,2.305,0.512,3.297,1.199,3.954
		c0.785,0.736,1.506,0.88,2.418,0.88c0.977,0,1.937-0.464,2.513-1.153c0.736-0.912,0.929-2.273,0.929-3.921V4.866
		c0-2.497,0-2.945-0.032-3.457c-0.032-0.544-0.16-0.801-0.688-0.913c-0.128-0.032-0.4-0.048-0.544-0.048
		c-0.064,0-0.128-0.032-0.128-0.096c0-0.096,0.08-0.128,0.256-0.128c0.721,0,1.601,0.048,1.697,0.048
		c0.111,0,0.863-0.048,1.344-0.048c0.176,0,0.256,0.032,0.256,0.128c0,0.064-0.063,0.096-0.128,0.096
		c-0.112,0-0.208,0.016-0.399,0.048c-0.433,0.096-0.561,0.352-0.593,0.913c-0.032,0.512-0.032,0.96-0.032,3.457v1.713
		c0,1.729-0.191,3.649-1.473,4.786c-1.152,1.024-2.353,1.185-3.297,1.185c-0.545,0-2.161-0.064-3.297-1.136
		c-0.785-0.752-1.393-1.873-1.393-4.21V4.866z"/>
	<path d="M120.015,4.866c0-2.497,0-2.945-0.031-3.457c-0.032-0.544-0.16-0.801-0.688-0.913c-0.128-0.032-0.4-0.048-0.544-0.048
		c-0.064,0-0.129-0.032-0.129-0.096c0-0.096,0.08-0.128,0.257-0.128c0.72,0,1.729,0.048,1.809,0.048
		c0.176,0,1.393-0.048,1.889-0.048c1.009,0,2.081,0.096,2.929,0.704c0.4,0.288,1.105,1.072,1.105,2.177
		c0,1.185-0.496,2.369-1.938,3.698c1.312,1.681,2.401,3.105,3.33,4.098c0.863,0.912,1.553,1.088,1.952,1.152
		c0.304,0.048,0.528,0.048,0.624,0.048c0.08,0,0.145,0.048,0.145,0.096c0,0.096-0.096,0.128-0.385,0.128h-1.137
		c-0.896,0-1.296-0.08-1.712-0.304c-0.688-0.368-1.249-1.152-2.161-2.353c-0.672-0.88-1.424-1.953-1.744-2.369
		c-0.064-0.064-0.112-0.096-0.209-0.096l-1.969-0.032c-0.08,0-0.111,0.048-0.111,0.128v0.384c0,1.537,0,2.801,0.08,3.473
		c0.048,0.464,0.145,0.816,0.624,0.88c0.224,0.032,0.576,0.064,0.72,0.064c0.097,0,0.129,0.048,0.129,0.096
		c0,0.08-0.08,0.128-0.256,0.128c-0.881,0-1.889-0.048-1.969-0.048c-0.017,0-1.025,0.048-1.506,0.048
		c-0.176,0-0.256-0.032-0.256-0.128c0-0.048,0.032-0.096,0.129-0.096c0.144,0,0.336-0.032,0.48-0.064
		c0.319-0.064,0.399-0.416,0.463-0.88c0.08-0.672,0.08-1.937,0.08-3.473V4.866z M121.296,6.258c0,0.08,0.031,0.144,0.111,0.192
		c0.24,0.144,0.977,0.256,1.682,0.256c0.384,0,0.832-0.048,1.2-0.304c0.56-0.384,0.976-1.249,0.976-2.465
		c0-2.001-1.056-3.201-2.769-3.201c-0.479,0-0.912,0.048-1.072,0.096c-0.08,0.032-0.128,0.096-0.128,0.192V6.258z"/>
	<path d="M132.08,4.866c0-2.497,0-2.945-0.031-3.457c-0.033-0.544-0.16-0.801-0.689-0.913c-0.127-0.032-0.4-0.048-0.544-0.048
		c-0.063,0-0.128-0.032-0.128-0.096c0-0.096,0.08-0.128,0.256-0.128c0.369,0,0.801,0,1.152,0.016l0.656,0.032
		c0.112,0,3.298,0,3.666-0.016c0.305-0.016,0.561-0.048,0.688-0.08c0.08-0.016,0.145-0.08,0.225-0.08
		c0.049,0,0.064,0.064,0.064,0.145c0,0.112-0.08,0.304-0.129,0.752c-0.016,0.16-0.047,0.864-0.08,1.057
		c-0.016,0.08-0.047,0.176-0.111,0.176c-0.096,0-0.128-0.08-0.128-0.208c0-0.112-0.017-0.384-0.097-0.576
		c-0.111-0.256-0.271-0.448-1.137-0.544c-0.271-0.032-2.016-0.048-2.192-0.048c-0.063,0-0.096,0.048-0.096,0.16v4.418
		c0,0.112,0.016,0.16,0.096,0.16c0.208,0,2.177,0,2.546-0.032c0.383-0.032,0.607-0.064,0.752-0.224
		c0.111-0.128,0.176-0.208,0.24-0.208c0.047,0,0.08,0.032,0.08,0.128s-0.08,0.368-0.129,0.896c-0.031,0.32-0.063,0.912-0.063,1.024
		c0,0.128,0,0.304-0.112,0.304c-0.08,0-0.111-0.064-0.111-0.144c0-0.16,0-0.32-0.064-0.528c-0.064-0.224-0.209-0.496-0.832-0.561
		c-0.433-0.048-2.018-0.08-2.289-0.08c-0.08,0-0.112,0.048-0.112,0.112v1.409c0,0.544-0.017,2.401,0,2.737
		c0.048,1.104,0.288,1.312,1.856,1.312c0.416,0,1.121,0,1.537-0.176c0.416-0.176,0.607-0.496,0.72-1.152
		c0.032-0.176,0.064-0.24,0.144-0.24c0.097,0,0.097,0.128,0.097,0.24c0,0.128-0.128,1.216-0.208,1.552
		c-0.111,0.417-0.24,0.417-0.864,0.417c-1.2,0-2.081-0.032-2.705-0.048c-0.624-0.032-1.009-0.048-1.249-0.048
		c-0.031,0-0.304,0-0.64,0.016c-0.32,0-0.688,0.032-0.929,0.032c-0.176,0-0.256-0.032-0.256-0.128c0-0.048,0.031-0.096,0.128-0.096
		c0.144,0,0.336-0.032,0.479-0.064c0.32-0.064,0.4-0.416,0.465-0.88c0.08-0.672,0.08-1.937,0.08-3.473V4.866z"/>
	<path d="M2.353,24.066c0-2.497,0-2.945-0.032-3.457c-0.032-0.544-0.16-0.801-0.688-0.913c-0.128-0.032-0.4-0.048-0.544-0.048
		c-0.064,0-0.128-0.032-0.128-0.096c0-0.096,0.08-0.128,0.256-0.128c0.72,0,1.697,0.048,1.841,0.048s1.104-0.048,1.584-0.048
		c0.176,0,0.256,0.032,0.256,0.128c0,0.064-0.064,0.096-0.128,0.096c-0.112,0-0.208,0.016-0.4,0.048
		c-0.432,0.064-0.56,0.352-0.592,0.913c-0.032,0.512-0.032,0.96-0.032,3.457v2.241c0,2.305,0.512,3.297,1.2,3.954
		c0.785,0.736,1.505,0.88,2.417,0.88c0.977,0,1.937-0.464,2.513-1.153c0.736-0.912,0.928-2.273,0.928-3.921v-2.001
		c0-2.497,0-2.945-0.032-3.457c-0.032-0.544-0.16-0.801-0.688-0.913c-0.128-0.032-0.4-0.048-0.544-0.048
		c-0.064,0-0.128-0.032-0.128-0.096c0-0.096,0.08-0.128,0.256-0.128c0.72,0,1.601,0.048,1.697,0.048
		c0.112,0,0.864-0.048,1.344-0.048c0.176,0,0.256,0.032,0.256,0.128c0,0.064-0.064,0.096-0.128,0.096
		c-0.112,0-0.208,0.016-0.4,0.048c-0.432,0.096-0.56,0.352-0.592,0.913c-0.032,0.512-0.032,0.96-0.032,3.457v1.713
		c0,1.729-0.192,3.649-1.472,4.786c-1.153,1.024-2.353,1.185-3.297,1.185c-0.544,0-2.161-0.064-3.297-1.136
		c-0.785-0.752-1.393-1.873-1.393-4.21V24.066z"/>
	<path d="M16.561,24.066c0-2.497,0-2.945-0.032-3.457c-0.032-0.544-0.16-0.801-0.688-0.913c-0.128-0.032-0.4-0.048-0.544-0.048
		c-0.064,0-0.128-0.032-0.128-0.096c0-0.096,0.08-0.128,0.256-0.128c0.72,0,1.729,0.048,1.809,0.048
		c0.176,0,1.393-0.048,1.889-0.048c1.008,0,2.081,0.096,2.929,0.704c0.4,0.288,1.104,1.072,1.104,2.177
		c0,1.185-0.496,2.369-1.937,3.698c1.312,1.681,2.401,3.105,3.33,4.098c0.864,0.912,1.553,1.088,1.953,1.152
		c0.304,0.048,0.528,0.048,0.625,0.048c0.08,0,0.144,0.048,0.144,0.096c0,0.096-0.096,0.128-0.384,0.128h-1.136
		c-0.896,0-1.297-0.08-1.713-0.304c-0.688-0.368-1.249-1.152-2.161-2.353c-0.672-0.88-1.424-1.953-1.745-2.369
		c-0.064-0.064-0.112-0.096-0.208-0.096l-1.969-0.032c-0.08,0-0.112,0.048-0.112,0.128v0.384c0,1.537,0,2.801,0.08,3.473
		c0.048,0.464,0.144,0.816,0.625,0.88c0.224,0.032,0.576,0.064,0.72,0.064c0.096,0,0.128,0.048,0.128,0.096
		c0,0.08-0.08,0.128-0.256,0.128c-0.88,0-1.889-0.048-1.969-0.048c-0.016,0-1.024,0.048-1.505,0.048
		c-0.176,0-0.256-0.032-0.256-0.128c0-0.048,0.032-0.096,0.128-0.096c0.144,0,0.336-0.032,0.48-0.064
		c0.32-0.064,0.4-0.416,0.464-0.88c0.08-0.672,0.08-1.937,0.08-3.473V24.066z M17.842,25.458c0,0.08,0.032,0.144,0.112,0.192
		c0.24,0.144,0.977,0.256,1.681,0.256c0.384,0,0.833-0.048,1.201-0.304c0.56-0.384,0.976-1.249,0.976-2.465
		c0-2.001-1.056-3.201-2.769-3.201c-0.48,0-0.912,0.048-1.072,0.096c-0.08,0.032-0.128,0.096-0.128,0.192V25.458z"/>
	<path d="M28.625,24.066c0-2.497,0-2.945-0.032-3.457c-0.032-0.544-0.16-0.801-0.688-0.913c-0.128-0.032-0.4-0.048-0.544-0.048
		c-0.064,0-0.128-0.032-0.128-0.096c0-0.096,0.08-0.128,0.256-0.128c0.72,0,1.729,0.048,1.809,0.048
		c0.384,0,1.008-0.048,1.745-0.048c2.625,0,3.201,1.601,3.201,2.401c0,1.312-0.752,2.097-1.504,2.881
		c1.185,0.368,2.769,1.504,2.769,3.377c0,1.713-1.345,3.49-4.082,3.49c-0.176,0-0.688-0.032-1.152-0.048
		c-0.464-0.032-0.913-0.048-0.977-0.048c-0.032,0-0.304,0-0.64,0.016c-0.32,0-0.688,0.032-0.929,0.032
		c-0.176,0-0.256-0.032-0.256-0.128c0-0.048,0.032-0.096,0.128-0.096c0.144,0,0.336-0.032,0.48-0.064
		c0.32-0.064,0.4-0.416,0.464-0.88c0.08-0.672,0.08-1.937,0.08-3.473V24.066z M29.906,24.418c0,0.112,0.032,0.145,0.112,0.176
		c0.096,0.016,0.384,0.064,0.977,0.064c0.896,0,1.12-0.032,1.457-0.416c0.336-0.384,0.576-0.96,0.576-1.617
		c0-1.329-0.592-2.753-2.161-2.753c-0.176,0-0.512,0.016-0.768,0.08c-0.144,0.032-0.192,0.08-0.192,0.176V24.418z M29.906,26.115
		c0,1.232,0,3.217,0.016,3.458c0.048,0.784,0.048,1.008,0.544,1.249c0.432,0.208,1.121,0.24,1.409,0.24
		c0.864,0,2.257-0.464,2.257-2.273c0-0.96-0.32-2.353-1.553-3.201c-0.544-0.368-0.944-0.417-1.329-0.464
		c-0.208-0.032-1.008-0.032-1.249-0.032c-0.064,0-0.096,0.032-0.096,0.112V26.115z"/>
	<path d="M41.842,19.824c0.192-0.528,0.256-0.624,0.352-0.624c0.096,0,0.16,0.08,0.352,0.576c0.24,0.608,2.753,7.219,3.729,9.652
		c0.576,1.425,1.041,1.681,1.376,1.777c0.24,0.08,0.48,0.096,0.64,0.096c0.096,0,0.16,0.016,0.16,0.096
		c0,0.096-0.144,0.128-0.32,0.128c-0.24,0-1.409,0-2.513-0.032c-0.304-0.016-0.48-0.016-0.48-0.112c0-0.064,0.048-0.096,0.112-0.112
		c0.096-0.032,0.192-0.176,0.096-0.432l-1.489-3.938c-0.032-0.064-0.064-0.096-0.144-0.096h-3.441c-0.08,0-0.128,0.048-0.16,0.128
		l-0.96,2.833c-0.144,0.4-0.224,0.785-0.224,1.073c0,0.32,0.336,0.464,0.608,0.464h0.16c0.112,0,0.16,0.032,0.16,0.096
		c0,0.096-0.096,0.128-0.24,0.128c-0.384,0-1.072-0.048-1.249-0.048s-1.057,0.048-1.809,0.048c-0.208,0-0.304-0.032-0.304-0.128
		c0-0.064,0.064-0.096,0.144-0.096c0.112,0,0.336-0.016,0.464-0.032c0.736-0.096,1.056-0.705,1.344-1.505L41.842,19.824z
		 M43.506,26.227c0.08,0,0.08-0.048,0.064-0.112l-1.521-4.322c-0.08-0.24-0.16-0.24-0.24,0l-1.409,4.322
		c-0.032,0.08,0,0.112,0.048,0.112H43.506z"/>
	<path d="M51.169,29.348c0.032,1.312,0.192,1.729,0.625,1.857c0.304,0.08,0.656,0.096,0.8,0.096c0.08,0,0.128,0.032,0.128,0.096
		c0,0.096-0.096,0.128-0.288,0.128c-0.913,0-1.553-0.048-1.697-0.048s-0.816,0.048-1.537,0.048c-0.16,0-0.256-0.016-0.256-0.128
		c0-0.064,0.048-0.096,0.128-0.096c0.128,0,0.416-0.016,0.656-0.096c0.4-0.112,0.48-0.576,0.48-2.033L50.225,20
		c0-0.625,0.048-0.8,0.176-0.8c0.128,0,0.4,0.352,0.56,0.512c0.24,0.272,2.625,2.849,5.09,5.49c1.585,1.697,3.33,3.649,3.842,4.178
		l-0.176-8.131c-0.016-1.041-0.128-1.393-0.624-1.521c-0.288-0.064-0.656-0.08-0.784-0.08c-0.112,0-0.128-0.048-0.128-0.112
		c0-0.096,0.128-0.112,0.32-0.112c0.72,0,1.489,0.048,1.665,0.048c0.176,0,0.705-0.048,1.361-0.048c0.176,0,0.288,0.016,0.288,0.112
		c0,0.064-0.064,0.112-0.176,0.112c-0.08,0-0.192,0-0.384,0.048c-0.528,0.112-0.592,0.464-0.592,1.425L60.629,30.5
		c0,1.057-0.032,1.137-0.144,1.137c-0.128,0-0.32-0.176-1.168-1.024c-0.176-0.16-2.481-2.513-4.178-4.338
		c-1.857-2.001-3.666-4.018-4.178-4.594L51.169,29.348z"/>
	<path d="M71.088,24.066c0-2.497,0-2.945-0.032-3.457c-0.032-0.544-0.16-0.801-0.688-0.913c-0.128-0.032-0.4-0.048-0.544-0.048
		c-0.064,0-0.128-0.032-0.128-0.096c0-0.096,0.08-0.128,0.256-0.128c0.72,0,1.729,0.048,1.809,0.048c0.192,0,1.2-0.048,2.161-0.048
		c1.585,0,4.514-0.144,6.419,1.825c0.8,0.832,1.552,2.161,1.552,4.065c0,2.017-0.832,3.569-1.729,4.514
		c-0.688,0.72-2.129,1.84-4.85,1.84c-0.688,0-1.537-0.048-2.225-0.096c-0.705-0.048-1.249-0.096-1.329-0.096
		c-0.032,0-0.304,0-0.64,0.016c-0.32,0-0.688,0.032-0.929,0.032c-0.176,0-0.256-0.032-0.256-0.128c0-0.048,0.032-0.096,0.128-0.096
		c0.144,0,0.336-0.032,0.48-0.064c0.32-0.064,0.4-0.416,0.464-0.88c0.08-0.672,0.08-1.937,0.08-3.473V24.066z M72.433,25.795
		c0,1.696,0.016,3.169,0.032,3.473c0.016,0.4,0.048,1.041,0.176,1.217c0.208,0.304,0.832,0.64,2.721,0.64
		c1.488,0,2.865-0.544,3.81-1.489c0.832-0.816,1.28-2.353,1.28-3.826c0-2.033-0.88-3.345-1.537-4.033
		c-1.504-1.585-3.329-1.809-5.234-1.809c-0.32,0-0.913,0.048-1.041,0.112c-0.144,0.064-0.192,0.144-0.192,0.32
		c-0.016,0.544-0.016,2.177-0.016,3.41V25.795z"/>
	<path d="M85.601,24.066c0-2.497,0-2.945-0.032-3.457c-0.032-0.544-0.16-0.801-0.688-0.913c-0.128-0.032-0.4-0.048-0.544-0.048
		c-0.064,0-0.128-0.032-0.128-0.096c0-0.096,0.08-0.128,0.256-0.128c0.368,0,0.8,0,1.152,0.016l0.656,0.032
		c0.112,0,3.297,0,3.666-0.016c0.304-0.016,0.56-0.048,0.688-0.08c0.08-0.016,0.145-0.08,0.225-0.08
		c0.048,0,0.063,0.064,0.063,0.145c0,0.112-0.079,0.304-0.128,0.752c-0.016,0.16-0.048,0.864-0.08,1.057
		c-0.016,0.08-0.048,0.176-0.111,0.176c-0.097,0-0.129-0.08-0.129-0.208c0-0.112-0.016-0.384-0.096-0.576
		c-0.112-0.256-0.272-0.448-1.137-0.544c-0.272-0.032-2.017-0.048-2.193-0.048c-0.064,0-0.096,0.048-0.096,0.16v4.418
		c0,0.112,0.016,0.16,0.096,0.16c0.208,0,2.177,0,2.545-0.032c0.384-0.032,0.608-0.064,0.752-0.224
		c0.112-0.128,0.177-0.208,0.24-0.208c0.048,0,0.08,0.032,0.08,0.128s-0.08,0.368-0.128,0.896c-0.032,0.32-0.064,0.912-0.064,1.024
		c0,0.128,0,0.304-0.111,0.304c-0.08,0-0.112-0.064-0.112-0.144c0-0.16,0-0.32-0.064-0.528c-0.064-0.224-0.208-0.496-0.833-0.561
		c-0.432-0.048-2.017-0.08-2.289-0.08c-0.08,0-0.112,0.048-0.112,0.112v1.409c0,0.544-0.016,2.401,0,2.737
		c0.048,1.104,0.288,1.312,1.856,1.312c0.417,0,1.121,0,1.537-0.176c0.417-0.176,0.608-0.496,0.72-1.152
		c0.033-0.176,0.064-0.24,0.145-0.24c0.096,0,0.096,0.128,0.096,0.24c0,0.128-0.127,1.216-0.207,1.552
		c-0.112,0.417-0.24,0.417-0.865,0.417c-1.2,0-2.081-0.032-2.705-0.048c-0.625-0.032-1.008-0.048-1.249-0.048
		c-0.032,0-0.304,0-0.64,0.016c-0.32,0-0.688,0.032-0.929,0.032c-0.176,0-0.256-0.032-0.256-0.128c0-0.048,0.032-0.096,0.128-0.096
		c0.144,0,0.336-0.032,0.48-0.064c0.32-0.064,0.4-0.416,0.464-0.88c0.08-0.672,0.08-1.937,0.08-3.473V24.066z"/>
	<path d="M94.335,31.317c-0.224-0.112-0.24-0.176-0.24-0.608c0-0.801,0.064-1.441,0.08-1.697c0.017-0.176,0.049-0.256,0.129-0.256
		c0.096,0,0.111,0.048,0.111,0.176c0,0.144,0,0.368,0.049,0.592c0.24,1.185,1.297,1.632,2.369,1.632
		c1.536,0,2.289-1.104,2.289-2.129c0-1.104-0.465-1.745-1.842-2.881l-0.72-0.592c-1.696-1.393-2.081-2.385-2.081-3.474
		c0-1.712,1.281-2.881,3.313-2.881c0.624,0,1.089,0.064,1.488,0.16c0.304,0.064,0.433,0.08,0.561,0.08s0.16,0.032,0.16,0.112
		s-0.063,0.608-0.063,1.697c0,0.256-0.033,0.368-0.113,0.368c-0.096,0-0.111-0.08-0.127-0.208c-0.017-0.192-0.113-0.625-0.209-0.8
		c-0.096-0.176-0.527-0.849-2-0.849c-1.105,0-1.969,0.688-1.969,1.857c0,0.912,0.416,1.488,1.952,2.689l0.448,0.352
		c1.889,1.489,2.337,2.481,2.337,3.762c0,0.656-0.256,1.873-1.36,2.657c-0.688,0.48-1.553,0.672-2.417,0.672
		C95.728,31.749,94.992,31.637,94.335,31.317z"/>
	<path d="M105.826,26.883c0,1.537,0,2.801,0.08,3.473c0.047,0.464,0.144,0.816,0.623,0.88c0.225,0.032,0.576,0.064,0.721,0.064
		c0.096,0,0.128,0.048,0.128,0.096c0,0.08-0.079,0.128-0.256,0.128c-0.88,0-1.889-0.048-1.969-0.048s-1.089,0.048-1.569,0.048
		c-0.176,0-0.256-0.032-0.256-0.128c0-0.048,0.032-0.096,0.129-0.096c0.144,0,0.336-0.032,0.48-0.064
		c0.319-0.064,0.399-0.416,0.463-0.88c0.08-0.672,0.08-1.937,0.08-3.473v-2.817c0-2.497,0-2.945-0.031-3.457
		c-0.032-0.544-0.192-0.816-0.545-0.896c-0.176-0.048-0.384-0.064-0.496-0.064c-0.063,0-0.128-0.032-0.128-0.096
		c0-0.096,0.08-0.128,0.257-0.128c0.527,0,1.536,0.048,1.616,0.048s1.089-0.048,1.568-0.048c0.177,0,0.257,0.032,0.257,0.128
		c0,0.064-0.064,0.096-0.129,0.096c-0.111,0-0.207,0.016-0.4,0.048c-0.432,0.08-0.56,0.352-0.592,0.913
		c-0.031,0.512-0.031,0.96-0.031,3.457V26.883z"/>
	<path d="M118.884,27.443c0-1.296-0.08-1.473-0.721-1.648c-0.128-0.032-0.4-0.048-0.545-0.048c-0.063,0-0.127-0.032-0.127-0.096
		c0-0.096,0.08-0.128,0.256-0.128c0.721,0,1.729,0.048,1.809,0.048s1.088-0.048,1.568-0.048c0.176,0,0.256,0.032,0.256,0.128
		c0,0.064-0.063,0.096-0.127,0.096c-0.113,0-0.209,0.016-0.4,0.048c-0.433,0.08-0.561,0.352-0.593,0.912
		c-0.032,0.512-0.032,0.993-0.032,1.665v1.793c0,0.72-0.016,0.752-0.207,0.864c-1.025,0.544-2.466,0.72-3.395,0.72
		c-1.216,0-3.488-0.16-5.266-1.712c-0.977-0.849-1.904-2.561-1.904-4.562c0-2.561,1.248-4.37,2.672-5.266
		c1.441-0.896,3.025-1.008,4.258-1.008c1.01,0,2.146,0.208,2.449,0.272c0.336,0.08,0.896,0.144,1.297,0.16
		c0.16,0.016,0.191,0.08,0.191,0.144c0,0.224-0.111,0.672-0.111,2.273c0,0.256-0.032,0.336-0.145,0.336
		c-0.08,0-0.096-0.096-0.111-0.24c-0.016-0.224-0.096-0.672-0.336-1.057c-0.4-0.608-1.697-1.296-3.762-1.296
		c-1.009,0-2.209,0.096-3.426,1.056c-0.928,0.736-1.584,2.193-1.584,4.066c0,2.257,1.136,3.89,1.696,4.434
		c1.265,1.232,2.722,1.713,4.193,1.713c0.577,0,1.409-0.096,1.825-0.336c0.208-0.112,0.32-0.288,0.32-0.56V27.443z"/>
	<path d="M125.505,29.348c0.031,1.312,0.191,1.729,0.624,1.857c0.304,0.08,0.656,0.096,0.8,0.096c0.08,0,0.129,0.032,0.129,0.096
		c0,0.096-0.097,0.128-0.289,0.128c-0.912,0-1.553-0.048-1.696-0.048s-0.816,0.048-1.536,0.048c-0.16,0-0.256-0.016-0.256-0.128
		c0-0.064,0.047-0.096,0.127-0.096c0.129,0,0.416-0.016,0.656-0.096c0.4-0.112,0.48-0.576,0.48-2.033L124.56,20
		c0-0.625,0.049-0.8,0.177-0.8s0.399,0.352,0.56,0.512c0.24,0.272,2.625,2.849,5.09,5.49c1.586,1.697,3.33,3.649,3.842,4.178
		l-0.176-8.131c-0.016-1.041-0.128-1.393-0.624-1.521c-0.288-0.064-0.656-0.08-0.784-0.08c-0.112,0-0.129-0.048-0.129-0.112
		c0-0.096,0.129-0.112,0.32-0.112c0.721,0,1.489,0.048,1.665,0.048c0.177,0,0.704-0.048,1.36-0.048c0.176,0,0.289,0.016,0.289,0.112
		c0,0.064-0.064,0.112-0.177,0.112c-0.08,0-0.192,0-0.384,0.048c-0.528,0.112-0.593,0.464-0.593,1.425l-0.032,9.379
		c0,1.057-0.031,1.137-0.144,1.137c-0.128,0-0.32-0.176-1.169-1.024c-0.176-0.16-2.48-2.513-4.178-4.338
		c-1.856-2.001-3.665-4.018-4.178-4.594L125.505,29.348z"/>
	<path d="M4.626,46.083c0,1.537,0,2.801,0.08,3.474c0.048,0.464,0.144,0.816,0.624,0.88C5.554,50.469,5.906,50.5,6.05,50.5
		c0.096,0,0.128,0.049,0.128,0.096c0,0.08-0.08,0.129-0.256,0.129c-0.88,0-1.889-0.049-1.969-0.049s-1.088,0.049-1.569,0.049
		c-0.176,0-0.256-0.032-0.256-0.129c0-0.047,0.032-0.096,0.128-0.096c0.144,0,0.336-0.031,0.48-0.064
		c0.32-0.063,0.4-0.416,0.464-0.88c0.08-0.673,0.08-1.937,0.08-3.474v-2.817c0-2.497,0-2.945-0.032-3.457
		c-0.032-0.544-0.192-0.816-0.544-0.896c-0.176-0.048-0.384-0.064-0.496-0.064c-0.064,0-0.128-0.032-0.128-0.096
		c0-0.096,0.08-0.128,0.256-0.128c0.528,0,1.537,0.048,1.617,0.048s1.088-0.048,1.568-0.048c0.176,0,0.256,0.032,0.256,0.128
		c0,0.064-0.064,0.096-0.128,0.096c-0.112,0-0.208,0.016-0.4,0.048c-0.432,0.08-0.56,0.352-0.592,0.913
		c-0.032,0.512-0.032,0.96-0.032,3.457V46.083z"/>
	<path d="M10.753,48.547c0.032,1.312,0.192,1.729,0.625,1.857c0.304,0.08,0.656,0.096,0.8,0.096c0.08,0,0.128,0.032,0.128,0.096
		c0,0.097-0.096,0.129-0.288,0.129c-0.913,0-1.553-0.049-1.697-0.049s-0.816,0.049-1.537,0.049c-0.16,0-0.256-0.016-0.256-0.129
		c0-0.063,0.048-0.096,0.128-0.096c0.128,0,0.416-0.016,0.656-0.096c0.4-0.112,0.48-0.576,0.48-2.033L9.809,39.2
		c0-0.625,0.048-0.8,0.176-0.8c0.128,0,0.4,0.352,0.56,0.512c0.24,0.272,2.625,2.849,5.09,5.49c1.585,1.697,3.33,3.649,3.842,4.178
		L19.3,40.449c-0.016-1.041-0.128-1.393-0.624-1.521c-0.288-0.064-0.656-0.08-0.784-0.08c-0.112,0-0.128-0.048-0.128-0.112
		c0-0.096,0.128-0.112,0.32-0.112c0.72,0,1.489,0.048,1.665,0.048c0.176,0,0.705-0.048,1.361-0.048c0.176,0,0.288,0.016,0.288,0.112
		c0,0.064-0.064,0.112-0.176,0.112c-0.08,0-0.192,0-0.384,0.048c-0.528,0.112-0.592,0.464-0.592,1.425L20.213,49.7
		c0,1.057-0.032,1.137-0.144,1.137c-0.128,0-0.32-0.176-1.168-1.023c-0.176-0.16-2.481-2.514-4.178-4.338
		c-1.857-2.001-3.666-4.018-4.178-4.594L10.753,48.547z"/>
	<path d="M28.882,46.083c0,1.537,0,2.801,0.08,3.474c0.048,0.464,0.144,0.816,0.625,0.88c0.224,0.033,0.576,0.064,0.72,0.064
		c0.096,0,0.128,0.049,0.128,0.096c0,0.08-0.08,0.129-0.256,0.129c-0.88,0-1.889-0.049-1.969-0.049s-1.088,0.049-1.569,0.049
		c-0.176,0-0.256-0.032-0.256-0.129c0-0.047,0.032-0.096,0.128-0.096c0.144,0,0.336-0.031,0.48-0.064
		c0.32-0.063,0.4-0.416,0.464-0.88c0.08-0.673,0.08-1.937,0.08-3.474v-6.771l-2.369,0.032c-0.992,0.016-1.376,0.128-1.632,0.512
		c-0.176,0.272-0.224,0.384-0.272,0.496c-0.048,0.128-0.096,0.16-0.16,0.16c-0.048,0-0.08-0.048-0.08-0.144
		c0-0.16,0.32-1.537,0.352-1.665c0.032-0.096,0.096-0.304,0.16-0.304c0.112,0,0.272,0.16,0.704,0.192
		c0.464,0.048,1.072,0.08,1.265,0.08h6.002c0.512,0,0.88-0.032,1.136-0.08c0.24-0.032,0.384-0.08,0.448-0.08
		c0.08,0,0.08,0.096,0.08,0.192c0,0.48-0.048,1.584-0.048,1.761c0,0.144-0.048,0.208-0.112,0.208c-0.08,0-0.112-0.048-0.128-0.272
		l-0.016-0.176c-0.048-0.48-0.432-0.849-1.969-0.88l-2.017-0.032V46.083z"/>
	<path d="M36.529,43.266c0-2.497,0-2.945-0.032-3.457c-0.032-0.544-0.16-0.801-0.688-0.913c-0.128-0.032-0.4-0.048-0.544-0.048
		c-0.064,0-0.128-0.032-0.128-0.096c0-0.096,0.08-0.128,0.256-0.128c0.368,0,0.8,0,1.152,0.016l0.656,0.032
		c0.112,0,3.297,0,3.666-0.016c0.304-0.016,0.56-0.048,0.688-0.08c0.08-0.016,0.144-0.08,0.224-0.08
		c0.048,0,0.064,0.064,0.064,0.144c0,0.112-0.08,0.304-0.128,0.752c-0.016,0.16-0.048,0.864-0.08,1.057
		c-0.016,0.08-0.048,0.176-0.112,0.176c-0.096,0-0.128-0.08-0.128-0.208c0-0.112-0.016-0.384-0.096-0.576
		c-0.112-0.256-0.272-0.448-1.137-0.544c-0.272-0.032-2.017-0.048-2.193-0.048c-0.064,0-0.096,0.048-0.096,0.16v4.418
		c0,0.112,0.016,0.16,0.096,0.16c0.208,0,2.177,0,2.545-0.032c0.384-0.032,0.608-0.064,0.752-0.224
		c0.112-0.128,0.176-0.208,0.24-0.208c0.048,0,0.08,0.032,0.08,0.128s-0.08,0.368-0.128,0.896c-0.032,0.32-0.064,0.912-0.064,1.024
		c0,0.128,0,0.305-0.112,0.305c-0.08,0-0.112-0.064-0.112-0.145c0-0.16,0-0.32-0.064-0.528c-0.064-0.224-0.208-0.496-0.832-0.561
		c-0.432-0.048-2.017-0.08-2.289-0.08c-0.08,0-0.112,0.048-0.112,0.112v1.408c0,0.545-0.016,2.401,0,2.737
		c0.048,1.104,0.288,1.312,1.856,1.312c0.417,0,1.121,0,1.537-0.176c0.417-0.177,0.608-0.496,0.72-1.152
		c0.032-0.177,0.064-0.24,0.144-0.24c0.096,0,0.096,0.128,0.096,0.24c0,0.128-0.128,1.216-0.208,1.552
		c-0.112,0.417-0.24,0.417-0.864,0.417c-1.201,0-2.081-0.032-2.705-0.048c-0.625-0.032-1.008-0.049-1.249-0.049
		c-0.032,0-0.304,0-0.64,0.017c-0.32,0-0.688,0.032-0.929,0.032c-0.176,0-0.256-0.032-0.256-0.129c0-0.047,0.032-0.096,0.128-0.096
		c0.144,0,0.336-0.031,0.48-0.064c0.32-0.063,0.4-0.416,0.464-0.88c0.08-0.673,0.08-1.937,0.08-3.474V43.266z"/>
	<path d="M46.289,43.266c0-2.497,0-2.945-0.032-3.457c-0.032-0.544-0.16-0.801-0.688-0.913c-0.128-0.032-0.4-0.048-0.544-0.048
		c-0.064,0-0.128-0.032-0.128-0.096c0-0.096,0.08-0.128,0.256-0.128c0.72,0,1.729,0.048,1.809,0.048
		c0.176,0,1.393-0.048,1.889-0.048c1.008,0,2.081,0.096,2.929,0.704c0.4,0.288,1.104,1.072,1.104,2.177
		c0,1.185-0.496,2.369-1.937,3.698c1.312,1.681,2.401,3.104,3.33,4.098c0.864,0.912,1.553,1.089,1.953,1.152
		c0.304,0.048,0.528,0.048,0.625,0.048c0.08,0,0.144,0.049,0.144,0.096c0,0.097-0.096,0.129-0.384,0.129h-1.136
		c-0.896,0-1.297-0.08-1.713-0.305c-0.688-0.367-1.249-1.152-2.161-2.353c-0.672-0.88-1.424-1.953-1.745-2.369
		c-0.064-0.063-0.112-0.097-0.208-0.097l-1.969-0.031c-0.08,0-0.112,0.048-0.112,0.128v0.384c0,1.537,0,2.801,0.08,3.474
		c0.048,0.464,0.144,0.816,0.625,0.88c0.224,0.033,0.576,0.064,0.72,0.064c0.096,0,0.128,0.049,0.128,0.096
		c0,0.08-0.08,0.129-0.256,0.129c-0.88,0-1.889-0.049-1.969-0.049c-0.016,0-1.024,0.049-1.505,0.049
		c-0.176,0-0.256-0.032-0.256-0.129c0-0.047,0.032-0.096,0.128-0.096c0.144,0,0.336-0.031,0.48-0.064
		c0.32-0.063,0.4-0.416,0.464-0.88c0.08-0.673,0.08-1.937,0.08-3.474V43.266z M47.569,44.658c0,0.08,0.032,0.144,0.112,0.192
		c0.24,0.144,0.977,0.256,1.681,0.256c0.384,0,0.833-0.048,1.201-0.304c0.56-0.384,0.976-1.249,0.976-2.465
		c0-2.001-1.056-3.201-2.769-3.201c-0.48,0-0.912,0.048-1.072,0.096c-0.08,0.032-0.128,0.096-0.128,0.192V44.658z"/>
	<path d="M59.697,46.083c0,1.537,0,2.801,0.08,3.474c0.048,0.464,0.144,0.816,0.624,0.88c0.224,0.033,0.576,0.064,0.72,0.064
		c0.096,0,0.128,0.049,0.128,0.096c0,0.08-0.08,0.129-0.256,0.129c-0.88,0-1.889-0.049-1.969-0.049s-1.088,0.049-1.569,0.049
		c-0.176,0-0.256-0.032-0.256-0.129c0-0.047,0.032-0.096,0.128-0.096c0.144,0,0.336-0.031,0.48-0.064
		c0.32-0.063,0.4-0.416,0.464-0.88c0.08-0.673,0.08-1.937,0.08-3.474v-2.817c0-2.497,0-2.945-0.032-3.457
		c-0.032-0.544-0.192-0.816-0.544-0.896c-0.176-0.048-0.384-0.064-0.496-0.064c-0.064,0-0.128-0.032-0.128-0.096
		c0-0.096,0.08-0.128,0.256-0.128c0.528,0,1.537,0.048,1.617,0.048s1.088-0.048,1.568-0.048c0.176,0,0.256,0.032,0.256,0.128
		c0,0.064-0.064,0.096-0.128,0.096c-0.112,0-0.208,0.016-0.4,0.048c-0.432,0.08-0.56,0.352-0.592,0.913
		c-0.032,0.512-0.032,0.96-0.032,3.457V46.083z"/>
	<path d="M69.474,38.4c3.602,0,6.291,2.273,6.291,6.002c0,3.585-2.529,6.546-6.387,6.546c-4.386,0-6.21-3.409-6.21-6.291
		C63.167,42.065,65.056,38.4,69.474,38.4z M69.81,50.34c1.441,0,4.418-0.832,4.418-5.49c0-3.842-2.337-5.907-4.866-5.907
		c-2.673,0-4.674,1.761-4.674,5.266C64.688,47.94,66.929,50.34,69.81,50.34z"/>
	<path d="M79.152,43.266c0-2.497,0-2.945-0.032-3.457c-0.032-0.544-0.16-0.801-0.688-0.913c-0.128-0.032-0.4-0.048-0.544-0.048
		c-0.064,0-0.128-0.032-0.128-0.096c0-0.096,0.08-0.128,0.256-0.128c0.72,0,1.729,0.048,1.809,0.048
		c0.176,0,1.393-0.048,1.889-0.048c1.008,0,2.081,0.096,2.929,0.704c0.4,0.288,1.104,1.072,1.104,2.177
		c0,1.185-0.496,2.369-1.937,3.698c1.312,1.681,2.401,3.104,3.33,4.098c0.864,0.912,1.553,1.089,1.953,1.152
		C89.396,50.5,89.62,50.5,89.716,50.5c0.08,0,0.144,0.049,0.144,0.096c0,0.097-0.096,0.129-0.384,0.129H88.34
		c-0.896,0-1.297-0.08-1.713-0.305c-0.688-0.367-1.249-1.152-2.161-2.353c-0.672-0.88-1.424-1.953-1.745-2.369
		c-0.064-0.063-0.112-0.097-0.208-0.097l-1.969-0.031c-0.08,0-0.112,0.048-0.112,0.128v0.384c0,1.537,0,2.801,0.08,3.474
		c0.048,0.464,0.144,0.816,0.625,0.88c0.224,0.033,0.576,0.064,0.72,0.064c0.096,0,0.128,0.049,0.128,0.096
		c0,0.08-0.08,0.129-0.256,0.129c-0.88,0-1.889-0.049-1.969-0.049c-0.016,0-1.024,0.049-1.505,0.049
		c-0.176,0-0.256-0.032-0.256-0.129c0-0.047,0.032-0.096,0.128-0.096c0.144,0,0.336-0.031,0.48-0.064
		c0.32-0.063,0.4-0.416,0.464-0.88c0.08-0.673,0.08-1.937,0.08-3.474V43.266z M80.433,44.658c0,0.08,0.032,0.144,0.112,0.192
		c0.24,0.144,0.977,0.256,1.681,0.256c0.384,0,0.833-0.048,1.201-0.304c0.56-0.384,0.976-1.249,0.976-2.465
		c0-2.001-1.056-3.201-2.769-3.201c-0.48,0-0.912,0.048-1.072,0.096c-0.08,0.032-0.128,0.096-0.128,0.192V44.658z"/>
	<path d="M90.032,50.516c-0.224-0.111-0.24-0.176-0.24-0.607c0-0.801,0.064-1.441,0.08-1.697c0.016-0.176,0.048-0.256,0.128-0.256
		c0.096,0,0.112,0.049,0.112,0.176c0,0.145,0,0.369,0.048,0.593c0.24,1.185,1.297,1.632,2.369,1.632
		c1.537,0,2.289-1.104,2.289-2.129c0-1.104-0.465-1.744-1.841-2.88l-0.72-0.592c-1.697-1.393-2.082-2.385-2.082-3.474
		c0-1.712,1.281-2.881,3.314-2.881c0.623,0,1.088,0.064,1.488,0.16c0.304,0.064,0.432,0.08,0.561,0.08
		c0.127,0,0.16,0.032,0.16,0.112s-0.064,0.608-0.064,1.697c0,0.256-0.032,0.368-0.112,0.368c-0.097,0-0.112-0.08-0.128-0.208
		c-0.016-0.192-0.112-0.625-0.208-0.8c-0.097-0.176-0.528-0.849-2.001-0.849c-1.104,0-1.969,0.688-1.969,1.857
		c0,0.912,0.416,1.488,1.953,2.689l0.447,0.352c1.889,1.489,2.338,2.48,2.338,3.762c0,0.656-0.256,1.873-1.361,2.656
		c-0.688,0.48-1.553,0.673-2.416,0.673C91.424,50.949,90.688,50.836,90.032,50.516z"/>
	<path d="M3.281,62.465c0-2.496,0-2.944-0.032-3.457c-0.032-0.544-0.16-0.801-0.688-0.912c-0.128-0.032-0.4-0.048-0.544-0.048
		c-0.064,0-0.128-0.032-0.128-0.097c0-0.096,0.08-0.127,0.256-0.127c0.368,0,0.8,0,1.152,0.016l0.656,0.016
		c0.32,0,3.569,0.016,3.938,0c0.304-0.016,0.56-0.016,0.704-0.064c0.096-0.031,0.16-0.096,0.224-0.096
		c0.064,0,0.096,0.064,0.096,0.145c0,0.111-0.08,0.304-0.128,0.752c-0.016,0.16-0.048,0.864-0.08,1.057
		c-0.016,0.08-0.048,0.176-0.128,0.176s-0.112-0.08-0.112-0.191c0-0.129-0.048-0.4-0.144-0.609
		c-0.096-0.207-0.464-0.496-1.088-0.512L4.77,58.464c-0.096,0-0.144,0.048-0.144,0.177v4.417c0,0.097,0.016,0.144,0.112,0.144
		l2.049-0.016c0.272,0,0.496,0,0.72-0.016c0.384-0.032,0.592-0.08,0.736-0.288c0.064-0.08,0.112-0.16,0.176-0.16
		S8.5,62.77,8.5,62.85c0,0.096-0.08,0.368-0.128,0.896c-0.032,0.32-0.064,0.961-0.064,1.072c0,0.145,0,0.305-0.112,0.305
		c-0.08,0-0.112-0.064-0.112-0.145c-0.016-0.16-0.032-0.385-0.096-0.576c-0.08-0.225-0.336-0.512-0.833-0.576
		c-0.4-0.049-2.145-0.049-2.417-0.049c-0.08,0-0.112,0.033-0.112,0.145v1.361c0,1.536,0,2.801,0.08,3.473
		c0.048,0.465,0.144,0.816,0.624,0.881c0.224,0.031,0.576,0.063,0.72,0.063c0.096,0,0.128,0.048,0.128,0.097
		c0,0.08-0.08,0.127-0.256,0.127c-0.88,0-1.889-0.047-1.969-0.047s-1.088,0.047-1.569,0.047c-0.176,0-0.256-0.031-0.256-0.127
		c0-0.049,0.032-0.097,0.128-0.097c0.144,0,0.336-0.032,0.48-0.063c0.32-0.064,0.4-0.416,0.464-0.881
		c0.08-0.672,0.08-1.937,0.08-3.473V62.465z"/>
	<path d="M11.009,62.465c0-2.496,0-2.944-0.032-3.457c-0.032-0.544-0.16-0.801-0.688-0.912c-0.128-0.032-0.4-0.048-0.544-0.048
		c-0.064,0-0.128-0.032-0.128-0.097c0-0.096,0.08-0.127,0.256-0.127c0.72,0,1.697,0.047,1.841,0.047s1.104-0.047,1.584-0.047
		c0.176,0,0.256,0.031,0.256,0.127c0,0.064-0.064,0.097-0.128,0.097c-0.112,0-0.208,0.016-0.4,0.048
		c-0.432,0.064-0.56,0.352-0.592,0.912c-0.032,0.513-0.032,0.961-0.032,3.457v2.242c0,2.305,0.512,3.297,1.2,3.953
		c0.785,0.736,1.505,0.881,2.417,0.881c0.977,0,1.937-0.465,2.513-1.153c0.736-0.912,0.928-2.272,0.928-3.921v-2.002
		c0-2.496,0-2.944-0.032-3.457c-0.032-0.544-0.16-0.801-0.688-0.912c-0.128-0.032-0.4-0.048-0.544-0.048
		c-0.064,0-0.128-0.032-0.128-0.097c0-0.096,0.08-0.127,0.256-0.127c0.72,0,1.601,0.047,1.697,0.047
		c0.112,0,0.864-0.047,1.344-0.047c0.176,0,0.256,0.031,0.256,0.127c0,0.064-0.064,0.097-0.128,0.097
		c-0.112,0-0.208,0.016-0.4,0.048c-0.432,0.096-0.56,0.352-0.592,0.912c-0.032,0.513-0.032,0.961-0.032,3.457v1.713
		c0,1.729-0.192,3.65-1.472,4.786c-1.153,1.024-2.353,1.185-3.297,1.185c-0.544,0-2.161-0.064-3.297-1.137
		c-0.785-0.752-1.393-1.873-1.393-4.209V62.465z"/>
	<path d="M24.401,62.465c0-2.496,0-2.944-0.032-3.457c-0.032-0.544-0.16-0.801-0.688-0.912c-0.128-0.032-0.4-0.048-0.544-0.048
		c-0.064,0-0.128-0.032-0.128-0.097c0-0.096,0.08-0.127,0.256-0.127c0.72,0,1.729,0.047,1.809,0.047
		c0.176,0,1.393-0.047,1.889-0.047c1.008,0,2.081,0.096,2.929,0.703c0.4,0.289,1.104,1.072,1.104,2.178
		c0,1.184-0.496,2.369-1.937,3.697c1.312,1.681,2.401,3.105,3.33,4.098c0.864,0.912,1.553,1.088,1.953,1.152
		c0.304,0.048,0.528,0.048,0.625,0.048c0.08,0,0.144,0.048,0.144,0.097c0,0.096-0.096,0.127-0.384,0.127h-1.137
		c-0.896,0-1.296-0.08-1.712-0.303c-0.688-0.369-1.249-1.153-2.161-2.354c-0.672-0.881-1.424-1.953-1.745-2.369
		c-0.064-0.064-0.112-0.096-0.208-0.096l-1.969-0.032c-0.08,0-0.112,0.048-0.112,0.128v0.385c0,1.536,0,2.801,0.08,3.473
		c0.048,0.465,0.145,0.816,0.625,0.881c0.224,0.031,0.576,0.063,0.72,0.063c0.096,0,0.128,0.048,0.128,0.097
		c0,0.08-0.08,0.127-0.256,0.127c-0.88,0-1.889-0.047-1.969-0.047c-0.016,0-1.024,0.047-1.505,0.047
		c-0.176,0-0.256-0.031-0.256-0.127c0-0.049,0.032-0.097,0.128-0.097c0.144,0,0.336-0.032,0.48-0.063
		c0.32-0.064,0.4-0.416,0.464-0.881c0.08-0.672,0.08-1.937,0.08-3.473V62.465z M25.682,63.858c0,0.08,0.032,0.145,0.112,0.193
		c0.24,0.144,0.977,0.256,1.681,0.256c0.384,0,0.833-0.049,1.201-0.305c0.56-0.384,0.976-1.248,0.976-2.465
		c0-2.001-1.056-3.201-2.769-3.201c-0.48,0-0.912,0.048-1.072,0.096c-0.08,0.032-0.128,0.096-0.128,0.192V63.858z"/>
	<path d="M36.081,67.749c0.032,1.312,0.192,1.729,0.625,1.856c0.304,0.08,0.656,0.096,0.8,0.096c0.08,0,0.128,0.032,0.128,0.097
		c0,0.096-0.096,0.127-0.288,0.127c-0.913,0-1.553-0.047-1.697-0.047s-0.816,0.047-1.537,0.047c-0.16,0-0.256-0.016-0.256-0.127
		c0-0.064,0.048-0.097,0.128-0.097c0.128,0,0.416-0.016,0.656-0.096c0.4-0.112,0.48-0.576,0.48-2.032l0.016-9.172
		c0-0.625,0.048-0.801,0.176-0.801c0.128,0,0.4,0.352,0.56,0.512c0.24,0.272,2.625,2.85,5.09,5.49
		c1.585,1.697,3.33,3.65,3.842,4.178l-0.176-8.131c-0.016-1.041-0.128-1.393-0.624-1.521c-0.288-0.064-0.656-0.08-0.784-0.08
		c-0.112,0-0.128-0.048-0.128-0.112c0-0.096,0.128-0.111,0.32-0.111c0.72,0,1.489,0.047,1.665,0.047
		c0.176,0,0.705-0.047,1.361-0.047c0.176,0,0.288,0.016,0.288,0.111c0,0.064-0.064,0.112-0.176,0.112c-0.08,0-0.192,0-0.384,0.048
		c-0.528,0.111-0.592,0.465-0.592,1.425l-0.032,9.38c0,1.057-0.032,1.137-0.144,1.137c-0.128,0-0.32-0.177-1.168-1.025
		c-0.176-0.16-2.481-2.513-4.178-4.338c-1.857-2-3.666-4.018-4.178-4.594L36.081,67.749z"/>
	<path d="M51.33,65.284c0,1.536,0,2.801,0.08,3.473c0.048,0.465,0.144,0.816,0.624,0.881c0.224,0.031,0.576,0.063,0.72,0.063
		c0.096,0,0.128,0.048,0.128,0.097c0,0.08-0.08,0.127-0.256,0.127c-0.88,0-1.889-0.047-1.969-0.047s-1.088,0.047-1.569,0.047
		c-0.176,0-0.256-0.031-0.256-0.127c0-0.049,0.032-0.097,0.128-0.097c0.144,0,0.336-0.032,0.48-0.063
		c0.32-0.064,0.4-0.416,0.464-0.881c0.08-0.672,0.08-1.937,0.08-3.473v-2.818c0-2.496,0-2.944-0.032-3.457
		c-0.032-0.544-0.192-0.816-0.544-0.896c-0.176-0.048-0.384-0.063-0.496-0.063c-0.064,0-0.128-0.032-0.128-0.097
		c0-0.096,0.08-0.127,0.256-0.127c0.528,0,1.537,0.047,1.617,0.047s1.088-0.047,1.568-0.047c0.176,0,0.256,0.031,0.256,0.127
		c0,0.064-0.064,0.097-0.128,0.097c-0.112,0-0.208,0.016-0.4,0.048c-0.432,0.08-0.56,0.352-0.592,0.912
		c-0.032,0.513-0.032,0.961-0.032,3.457V65.284z"/>
	<path d="M59.618,65.284c0,1.536,0,2.801,0.08,3.473c0.048,0.465,0.144,0.816,0.625,0.881c0.224,0.031,0.576,0.063,0.72,0.063
		c0.096,0,0.128,0.048,0.128,0.097c0,0.08-0.08,0.127-0.256,0.127c-0.88,0-1.889-0.047-1.969-0.047s-1.088,0.047-1.569,0.047
		c-0.176,0-0.256-0.031-0.256-0.127c0-0.049,0.032-0.097,0.128-0.097c0.144,0,0.336-0.032,0.48-0.063
		c0.32-0.064,0.4-0.416,0.464-0.881c0.08-0.672,0.08-1.937,0.08-3.473v-6.771l-2.369,0.032c-0.992,0.017-1.376,0.128-1.632,0.513
		c-0.176,0.271-0.224,0.384-0.272,0.496c-0.048,0.127-0.096,0.16-0.16,0.16c-0.048,0-0.08-0.049-0.08-0.145
		c0-0.16,0.32-1.537,0.352-1.664c0.032-0.097,0.096-0.305,0.16-0.305c0.112,0,0.272,0.16,0.704,0.191
		c0.464,0.049,1.072,0.08,1.265,0.08h6.002c0.512,0,0.88-0.031,1.136-0.08c0.24-0.031,0.384-0.08,0.448-0.08
		c0.08,0,0.08,0.097,0.08,0.193c0,0.479-0.048,1.584-0.048,1.76c0,0.145-0.048,0.209-0.112,0.209c-0.08,0-0.112-0.049-0.128-0.273
		l-0.016-0.176c-0.048-0.48-0.432-0.848-1.969-0.88l-2.017-0.032V65.284z"/>
	<path d="M65.52,62.465c0-2.496,0-2.944-0.032-3.457c-0.032-0.544-0.16-0.801-0.688-0.912c-0.128-0.032-0.4-0.048-0.544-0.048
		c-0.064,0-0.128-0.032-0.128-0.097c0-0.096,0.08-0.127,0.256-0.127c0.72,0,1.697,0.047,1.841,0.047s1.104-0.047,1.584-0.047
		c0.176,0,0.256,0.031,0.256,0.127c0,0.064-0.064,0.097-0.128,0.097c-0.112,0-0.208,0.016-0.4,0.048
		c-0.432,0.064-0.56,0.352-0.592,0.912c-0.032,0.513-0.032,0.961-0.032,3.457v2.242c0,2.305,0.512,3.297,1.2,3.953
		c0.785,0.736,1.505,0.881,2.417,0.881c0.977,0,1.937-0.465,2.513-1.153c0.736-0.912,0.928-2.272,0.928-3.921v-2.002
		c0-2.496,0-2.944-0.032-3.457c-0.032-0.544-0.16-0.801-0.688-0.912c-0.128-0.032-0.4-0.048-0.544-0.048
		c-0.064,0-0.128-0.032-0.128-0.097c0-0.096,0.08-0.127,0.256-0.127c0.72,0,1.601,0.047,1.697,0.047
		c0.112,0,0.864-0.047,1.344-0.047c0.176,0,0.256,0.031,0.256,0.127c0,0.064-0.064,0.097-0.128,0.097
		c-0.112,0-0.208,0.016-0.4,0.048c-0.432,0.096-0.56,0.352-0.592,0.912c-0.032,0.513-0.032,0.961-0.032,3.457v1.713
		c0,1.729-0.192,3.65-1.472,4.786c-1.153,1.024-2.353,1.185-3.297,1.185c-0.544,0-2.161-0.064-3.297-1.137
		c-0.785-0.752-1.393-1.873-1.393-4.209V62.465z"/>
	<path d="M78.912,62.465c0-2.496,0-2.944-0.032-3.457c-0.032-0.544-0.16-0.801-0.688-0.912c-0.128-0.032-0.4-0.048-0.544-0.048
		c-0.064,0-0.128-0.032-0.128-0.097c0-0.096,0.08-0.127,0.256-0.127c0.72,0,1.729,0.047,1.809,0.047
		c0.176,0,1.393-0.047,1.889-0.047c1.008,0,2.081,0.096,2.929,0.703c0.4,0.289,1.104,1.072,1.104,2.178
		c0,1.184-0.496,2.369-1.937,3.697c1.312,1.681,2.401,3.105,3.33,4.098c0.864,0.912,1.553,1.088,1.953,1.152
		c0.304,0.048,0.528,0.048,0.625,0.048c0.08,0,0.144,0.048,0.144,0.097c0,0.096-0.096,0.127-0.384,0.127H88.1
		c-0.896,0-1.296-0.08-1.712-0.303c-0.688-0.369-1.249-1.153-2.161-2.354c-0.672-0.881-1.424-1.953-1.745-2.369
		c-0.064-0.064-0.112-0.096-0.208-0.096l-1.969-0.032c-0.08,0-0.112,0.048-0.112,0.128v0.385c0,1.536,0,2.801,0.08,3.473
		c0.048,0.465,0.145,0.816,0.625,0.881c0.224,0.031,0.576,0.063,0.72,0.063c0.096,0,0.128,0.048,0.128,0.097
		c0,0.08-0.08,0.127-0.256,0.127c-0.88,0-1.889-0.047-1.969-0.047c-0.016,0-1.024,0.047-1.505,0.047
		c-0.176,0-0.256-0.031-0.256-0.127c0-0.049,0.032-0.097,0.128-0.097c0.144,0,0.336-0.032,0.48-0.063
		c0.32-0.064,0.4-0.416,0.464-0.881c0.08-0.672,0.08-1.937,0.08-3.473V62.465z M80.193,63.858c0,0.08,0.032,0.145,0.112,0.193
		c0.24,0.144,0.977,0.256,1.681,0.256c0.384,0,0.833-0.049,1.201-0.305c0.56-0.384,0.976-1.248,0.976-2.465
		c0-2.001-1.056-3.201-2.769-3.201c-0.48,0-0.912,0.048-1.072,0.096c-0.08,0.032-0.128,0.096-0.128,0.192V63.858z"/>
	<path d="M90.16,62.465c0-2.496,0-2.944-0.032-3.457c-0.032-0.544-0.16-0.801-0.688-0.912c-0.128-0.032-0.4-0.048-0.544-0.048
		c-0.064,0-0.128-0.032-0.128-0.097c0-0.096,0.08-0.127,0.256-0.127c0.368,0,0.8,0,1.152,0.016l0.656,0.031
		c0.112,0,3.298,0,3.665-0.016c0.305-0.016,0.561-0.048,0.688-0.08c0.08-0.016,0.144-0.08,0.224-0.08
		c0.049,0,0.064,0.064,0.064,0.145c0,0.111-0.08,0.304-0.128,0.752c-0.017,0.16-0.048,0.864-0.08,1.057
		c-0.017,0.08-0.048,0.176-0.112,0.176c-0.096,0-0.127-0.08-0.127-0.208c0-0.112-0.017-0.384-0.097-0.576
		c-0.112-0.256-0.272-0.448-1.137-0.544c-0.272-0.032-2.017-0.049-2.192-0.049c-0.064,0-0.096,0.049-0.096,0.16v4.418
		c0,0.112,0.016,0.16,0.096,0.16c0.208,0,2.177,0,2.545-0.031c0.384-0.033,0.607-0.064,0.752-0.225
		c0.112-0.128,0.176-0.208,0.24-0.208c0.048,0,0.08,0.032,0.08,0.128s-0.08,0.368-0.128,0.896c-0.032,0.32-0.063,0.912-0.063,1.024
		c0,0.128,0,0.304-0.113,0.304c-0.08,0-0.111-0.064-0.111-0.144c0-0.16,0-0.32-0.064-0.528c-0.064-0.225-0.208-0.496-0.832-0.561
		c-0.432-0.048-2.018-0.08-2.289-0.08c-0.08,0-0.111,0.049-0.111,0.112v1.409c0,0.543-0.017,2.4,0,2.736
		c0.047,1.104,0.287,1.312,1.855,1.312c0.417,0,1.121,0,1.537-0.176s0.608-0.496,0.721-1.152c0.031-0.176,0.064-0.24,0.145-0.24
		c0.096,0,0.096,0.128,0.096,0.24c0,0.128-0.129,1.217-0.209,1.553c-0.111,0.416-0.24,0.416-0.863,0.416
		c-1.201,0-2.082-0.032-2.705-0.049c-0.625-0.031-1.009-0.047-1.249-0.047c-0.032,0-0.304,0-0.64,0.016
		c-0.321,0-0.689,0.031-0.929,0.031c-0.176,0-0.256-0.031-0.256-0.127c0-0.049,0.032-0.097,0.128-0.097
		c0.144,0,0.336-0.032,0.48-0.063c0.32-0.064,0.4-0.416,0.464-0.881c0.08-0.672,0.08-1.937,0.08-3.473V62.465z"/>
	<path fill="#333333" d="M0.297,91.198c0.012-0.172,0.018-0.312,0.018-0.422l-0.018-0.498l0.123-0.064
		c0.211,0.133,0.426,0.199,0.645,0.199c0.312,0,0.531-0.107,0.656-0.32s0.188-0.781,0.188-1.707v-5.051
		c0-1.289-0.037-2.01-0.111-2.16S1.491,80.95,1.1,80.95H0.708v-0.369c0.422,0.027,0.957,0.041,1.605,0.041
		c0.719,0,1.328-0.014,1.828-0.041v0.369l-0.389,0.023C3.434,81,3.243,81.036,3.178,81.079c-0.065,0.043-0.109,0.115-0.133,0.219
		c-0.023,0.104-0.035,0.438-0.035,1v5.045c0,0.836-0.055,1.436-0.164,1.799c-0.168,0.578-0.479,1.07-0.933,1.477
		s-0.888,0.609-1.301,0.609C0.539,91.227,0.434,91.217,0.297,91.198z"/>
	<path fill="#333333" d="M5.21,86.106c0-0.539,0.125-1.027,0.375-1.463s0.601-0.775,1.052-1.021s0.964-0.369,1.538-0.369
		c0.832,0,1.498,0.246,1.998,0.738s0.75,1.148,0.75,1.969c0,0.969-0.326,1.738-0.979,2.309c-0.582,0.512-1.279,0.768-2.092,0.768
		c-0.781,0-1.417-0.264-1.907-0.789S5.21,87.008,5.21,86.106z M6.312,85.692c0,0.806,0.165,1.495,0.495,2.068
		c0.33,0.572,0.806,0.859,1.427,0.859c0.473,0,0.854-0.18,1.146-0.54s0.437-0.905,0.437-1.637c0-0.591-0.086-1.103-0.258-1.534
		s-0.398-0.747-0.68-0.944c-0.281-0.198-0.596-0.296-0.943-0.296c-0.309,0-0.587,0.078-0.835,0.234s-0.431,0.365-0.548,0.627
		C6.392,84.886,6.312,85.274,6.312,85.692z"/>
	<path fill="#333333" d="M13.826,84.366l0.768-0.674c0.18-0.168,0.356-0.283,0.53-0.346s0.384-0.094,0.63-0.094
		c0.434,0,0.81,0.086,1.128,0.26s0.539,0.396,0.662,0.668s0.185,0.734,0.185,1.387l-0.035,1.734c0,0.391,0.016,0.699,0.047,0.926
		c0.012,0.094,0.044,0.164,0.097,0.211s0.167,0.078,0.343,0.094l0.445,0.047v0.34c-0.379-0.027-0.748-0.041-1.107-0.041
		c-0.309,0-0.615,0.014-0.92,0.041c0.07-0.98,0.105-1.945,0.105-2.895c0-0.637-0.04-1.068-0.12-1.295s-0.224-0.406-0.431-0.539
		s-0.469-0.199-0.785-0.199c-0.324,0-0.619,0.076-0.885,0.23s-0.449,0.334-0.551,0.537c-0.07,0.145-0.105,0.488-0.105,1.031v1.02
		c0,0.93,0.021,1.443,0.064,1.541s0.199,0.158,0.469,0.182l0.51,0.047v0.34c-0.609-0.027-1.1-0.041-1.471-0.041
		c-0.387,0-0.893,0.014-1.518,0.041v-0.34l0.369-0.047c0.23-0.027,0.375-0.061,0.434-0.098s0.098-0.121,0.117-0.254
		c0.027-0.211,0.041-0.684,0.041-1.417v-3.952c0-1.042-0.027-1.625-0.082-1.75c-0.035-0.086-0.193-0.129-0.475-0.129h-0.404v-0.357
		c0.605-0.062,1.09-0.15,1.453-0.264l0.48-0.164c0.062,0,0.094,0.041,0.094,0.123l-0.018,0.239l-0.035,1.054
		c-0.02,0.529-0.029,0.941-0.029,1.234V84.366z"/>
	<path fill="#333333" d="M21.159,84.372l0.886-0.785c0.105-0.094,0.217-0.162,0.334-0.205c0.258-0.086,0.516-0.129,0.774-0.129
		c0.418,0,0.78,0.084,1.085,0.254s0.524,0.391,0.657,0.662c0.133,0.271,0.2,0.697,0.2,1.275l-0.023,1.846
		c0,0.637,0.027,1.004,0.082,1.102c0.074,0.125,0.217,0.188,0.431,0.188h0.419v0.34c-0.417-0.027-0.777-0.041-1.081-0.041
		c-0.296,0-0.613,0.014-0.952,0.041c0.074-0.762,0.111-1.791,0.111-3.088c0-0.523-0.046-0.895-0.138-1.113
		c-0.092-0.219-0.247-0.395-0.463-0.527c-0.217-0.133-0.479-0.199-0.784-0.199c-0.379,0-0.702,0.096-0.966,0.287
		s-0.428,0.402-0.49,0.633c-0.039,0.152-0.059,0.551-0.059,1.195c0,0.715,0.006,1.379,0.018,1.992
		c0.004,0.184,0.031,0.299,0.083,0.346c0.098,0.09,0.259,0.135,0.483,0.135h0.418v0.34c-0.662-0.027-1.188-0.041-1.579-0.041
		c-0.415,0-0.887,0.014-1.415,0.041v-0.34h0.422c0.289,0,0.458-0.068,0.507-0.202c0.049-0.135,0.073-0.945,0.073-2.432
		c0-0.667-0.008-1.19-0.023-1.568c-0.008-0.124-0.039-0.21-0.094-0.257s-0.209-0.07-0.463-0.07H19.19v-0.34
		c0.335-0.039,0.635-0.092,0.9-0.158c0.265-0.066,0.562-0.168,0.894-0.305c0.035-0.016,0.068-0.023,0.099-0.023
		c0.062,0,0.094,0.045,0.094,0.135l-0.006,0.223L21.159,84.372z"/>
	<path fill="#333333" d="M35.373,80.973c-0.109,0.406-0.168,0.945-0.176,1.617h-0.404v-0.469c0-0.305-0.041-0.512-0.123-0.621
		s-0.296-0.227-0.642-0.35s-0.71-0.184-1.093-0.184c-0.625,0-1.116,0.158-1.474,0.473c-0.357,0.316-0.536,0.723-0.536,1.218
		c0,0.312,0.073,0.58,0.22,0.804c0.146,0.225,0.344,0.387,0.592,0.486s0.774,0.188,1.579,0.263c0.805,0.078,1.349,0.182,1.632,0.311
		c0.283,0.13,0.51,0.337,0.68,0.622s0.255,0.623,0.255,1.014c0,0.785-0.328,1.461-0.984,2.028s-1.531,0.851-2.625,0.851
		c-0.375,0-0.753-0.039-1.134-0.115s-0.765-0.188-1.151-0.336c0.07-0.469,0.104-1.07,0.1-1.805h0.398v0.293
		c0,0.379,0.02,0.613,0.059,0.703s0.131,0.186,0.275,0.287c0.215,0.152,0.471,0.268,0.768,0.348s0.617,0.121,0.961,0.121
		c0.738,0,1.309-0.174,1.711-0.521s0.604-0.789,0.604-1.324c0-0.312-0.068-0.578-0.205-0.795s-0.328-0.377-0.574-0.482
		s-0.701-0.186-1.365-0.24c-0.883-0.07-1.482-0.176-1.799-0.316s-0.564-0.363-0.744-0.666s-0.27-0.678-0.27-1.127
		c0-0.762,0.275-1.385,0.826-1.869s1.312-0.727,2.285-0.727c0.391,0,0.782,0.041,1.175,0.125S34.978,80.801,35.373,80.973z"/>
	<path fill="#333333" d="M38.627,83.229l0.141,0.088c-0.027,0.293-0.045,0.615-0.053,0.967c-0.027,1.141-0.041,1.982-0.041,2.525
		c0,0.508,0.018,0.941,0.053,1.301c0.016,0.141,0.053,0.238,0.111,0.293s0.199,0.096,0.422,0.123l0.398,0.053v0.34
		c-0.57-0.027-1.09-0.041-1.559-0.041c-0.461,0-0.926,0.014-1.395,0.041v-0.34l0.504-0.053c0.195-0.016,0.315-0.053,0.36-0.109
		s0.073-0.246,0.085-0.566c0.02-0.498,0.029-1.184,0.029-2.057c0-0.607-0.01-1.074-0.029-1.404
		c-0.008-0.121-0.042-0.207-0.103-0.258s-0.196-0.076-0.407-0.076h-0.439v-0.34c0.477-0.07,0.827-0.134,1.052-0.191
		C37.982,83.465,38.272,83.368,38.627,83.229z M38.159,80.633c0.18,0,0.334,0.064,0.463,0.195s0.193,0.289,0.193,0.473
		s-0.064,0.34-0.193,0.469s-0.283,0.193-0.463,0.193c-0.184,0-0.34-0.064-0.469-0.193s-0.193-0.285-0.193-0.469
		s0.064-0.342,0.193-0.473S37.975,80.633,38.159,80.633z"/>
	<path fill="#333333" d="M42.515,84.301l0.785-0.703c0.125-0.113,0.258-0.193,0.398-0.24c0.203-0.07,0.404-0.105,0.604-0.105
		c0.441,0,0.796,0.078,1.063,0.236s0.513,0.443,0.735,0.854l0.757-0.691c0.129-0.117,0.288-0.207,0.476-0.27
		c0.247-0.086,0.485-0.129,0.716-0.129c0.352,0,0.671,0.082,0.957,0.246s0.498,0.377,0.637,0.639
		c0.139,0.263,0.208,0.618,0.208,1.068l-0.023,2.293c0,0.513,0.029,0.814,0.088,0.906s0.21,0.145,0.454,0.156l0.43,0.018v0.34
		l-0.283-0.014c-0.456-0.019-0.764-0.027-0.925-0.027c-0.248,0-0.536,0.014-0.866,0.041c0.055-0.723,0.082-1.568,0.082-2.535
		c0-0.817-0.035-1.354-0.105-1.611c-0.07-0.256-0.205-0.457-0.403-0.604s-0.448-0.219-0.748-0.219c-0.339,0-0.629,0.092-0.871,0.275
		s-0.392,0.404-0.45,0.66c-0.039,0.162-0.059,0.857-0.059,2.086c0,0.724,0.006,1.136,0.018,1.236
		c0.012,0.102,0.044,0.172,0.097,0.213c0.053,0.042,0.222,0.078,0.507,0.11l0.393,0.048v0.34c-0.691-0.027-1.199-0.041-1.523-0.041
		c-0.258,0-0.758,0.014-1.5,0.041v-0.34h0.393c0.234,0,0.387-0.033,0.457-0.1s0.111-0.224,0.123-0.471
		c0.031-0.641,0.047-1.31,0.047-2.006c0-0.621-0.042-1.051-0.126-1.287s-0.227-0.424-0.428-0.561s-0.442-0.205-0.724-0.205
		c-0.301,0-0.574,0.084-0.82,0.252s-0.414,0.371-0.504,0.609c-0.059,0.165-0.088,0.631-0.088,1.396c0,0.842,0.008,1.459,0.023,1.854
		c0.008,0.184,0.037,0.302,0.088,0.353s0.219,0.09,0.504,0.117l0.404,0.047v0.34c-0.488-0.027-0.949-0.041-1.383-0.041
		c-0.492,0-1.027,0.014-1.605,0.041v-0.34h0.445c0.254,0,0.406-0.068,0.457-0.203s0.076-0.871,0.076-2.206
		c0-0.979-0.006-1.557-0.018-1.733c-0.012-0.176-0.045-0.287-0.1-0.334s-0.221-0.07-0.498-0.07h-0.363v-0.322
		c0.574-0.078,1.068-0.186,1.482-0.322l0.428-0.164c0.07,0,0.105,0.047,0.105,0.141l-0.012,0.213
		C42.515,83.792,42.511,84.034,42.515,84.301z"/>
	<path fill="#333333" d="M53.486,84.436l0.819-0.727c0.207-0.184,0.382-0.299,0.526-0.346c0.23-0.074,0.5-0.111,0.808-0.111
		c0.694,0,1.256,0.215,1.686,0.645c0.429,0.43,0.644,0.984,0.644,1.664c0,0.34-0.049,0.674-0.146,1.004s-0.216,0.6-0.357,0.809
		c-0.14,0.209-0.298,0.385-0.474,0.525c-0.059,0.047-0.297,0.201-0.714,0.463l-0.234,0.17c-0.296,0.207-0.535,0.342-0.717,0.406
		c-0.181,0.064-0.389,0.098-0.623,0.098c-0.184,0-0.376-0.027-0.58-0.08c-0.203-0.053-0.416-0.129-0.638-0.23v0.826
		c0,0.848,0.012,1.445,0.035,1.793c0.012,0.152,0.061,0.262,0.146,0.33s0.268,0.104,0.545,0.104h0.316v0.328
		c-0.74-0.027-1.282-0.041-1.626-0.041c-0.38,0-0.863,0.014-1.45,0.041v-0.328h0.428c0.301,0,0.479-0.064,0.533-0.193
		s0.082-0.816,0.082-2.062v-3.598c0-0.625-0.016-1.107-0.047-1.447c-0.016-0.164-0.054-0.273-0.114-0.326s-0.202-0.078-0.425-0.078
		h-0.457v-0.363c0.544-0.059,1.079-0.17,1.604-0.334l0.358-0.141c0.063,0,0.094,0.055,0.094,0.164l-0.018,0.621L53.486,84.436z
		 M53.486,87.659c0.25,0.281,0.499,0.48,0.749,0.598s0.519,0.176,0.808,0.176c0.616,0,1.088-0.232,1.416-0.697
		s0.491-1.018,0.491-1.658c0-0.43-0.075-0.799-0.225-1.105c-0.15-0.307-0.37-0.547-0.658-0.721s-0.599-0.26-0.93-0.26
		c-0.234,0-0.463,0.047-0.687,0.141c-0.225,0.094-0.42,0.223-0.588,0.389c-0.168,0.166-0.275,0.32-0.322,0.461
		c-0.035,0.105-0.053,0.385-0.053,0.838V87.659z"/>
	<path fill="#333333" d="M59.676,87.125v0.382c0,0.306,0.027,0.496,0.082,0.571c0.102,0.125,0.3,0.246,0.595,0.364
		s0.599,0.177,0.911,0.177c0.402,0,0.73-0.109,0.984-0.326s0.381-0.477,0.381-0.777c0-0.238-0.074-0.43-0.223-0.574
		s-0.432-0.261-0.85-0.347c-0.777-0.156-1.291-0.293-1.541-0.411c-0.25-0.117-0.438-0.273-0.562-0.469s-0.188-0.432-0.188-0.709
		c0-0.521,0.188-0.943,0.566-1.268c0.377-0.324,0.912-0.486,1.605-0.486c0.547,0,1.093,0.109,1.637,0.328
		c-0.034,0.266-0.061,0.711-0.082,1.336h-0.352c-0.008-0.344-0.045-0.57-0.111-0.68c-0.09-0.145-0.253-0.275-0.491-0.393
		s-0.491-0.176-0.76-0.176c-0.354,0-0.638,0.09-0.851,0.272c-0.212,0.182-0.318,0.409-0.318,0.683c0,0.263,0.084,0.461,0.252,0.594
		c0.168,0.137,0.633,0.281,1.395,0.434c0.562,0.113,0.934,0.219,1.113,0.316s0.324,0.246,0.434,0.445s0.164,0.428,0.164,0.685
		c0,0.526-0.226,0.981-0.677,1.364s-1.054,0.574-1.808,0.574c-0.48,0-1.02-0.076-1.617-0.226c-0.105-0.027-0.158-0.067-0.158-0.123
		l0.018-0.082c0.016-0.059,0.029-0.163,0.041-0.312c0.035-0.379,0.053-0.676,0.053-0.887l-0.006-0.281H59.676z"/>
	<path fill="#333333" d="M64.653,86.106c0-0.539,0.125-1.027,0.375-1.463s0.601-0.775,1.052-1.021s0.964-0.369,1.538-0.369
		c0.832,0,1.498,0.246,1.998,0.738s0.75,1.148,0.75,1.969c0,0.969-0.326,1.738-0.979,2.309c-0.582,0.512-1.279,0.768-2.092,0.768
		c-0.781,0-1.417-0.264-1.907-0.789S64.653,87.008,64.653,86.106z M65.755,85.692c0,0.806,0.165,1.495,0.495,2.068
		c0.33,0.572,0.806,0.859,1.427,0.859c0.473,0,0.854-0.18,1.146-0.54s0.437-0.905,0.437-1.637c0-0.591-0.086-1.103-0.258-1.534
		s-0.398-0.747-0.68-0.944c-0.281-0.198-0.596-0.296-0.943-0.296c-0.309,0-0.587,0.078-0.835,0.234s-0.431,0.365-0.548,0.627
		C65.835,84.886,65.755,85.274,65.755,85.692z"/>
	<path fill="#333333" d="M73.257,84.372l0.886-0.785c0.105-0.094,0.217-0.162,0.334-0.205c0.258-0.086,0.516-0.129,0.774-0.129
		c0.418,0,0.78,0.084,1.085,0.254s0.524,0.391,0.657,0.662c0.133,0.271,0.2,0.697,0.2,1.275l-0.023,1.846
		c0,0.637,0.027,1.004,0.082,1.102c0.074,0.125,0.217,0.188,0.431,0.188h0.419v0.34c-0.417-0.027-0.777-0.041-1.081-0.041
		c-0.296,0-0.613,0.014-0.952,0.041c0.074-0.762,0.111-1.791,0.111-3.088c0-0.523-0.046-0.895-0.138-1.113
		c-0.092-0.219-0.247-0.395-0.463-0.527c-0.217-0.133-0.479-0.199-0.784-0.199c-0.379,0-0.702,0.096-0.966,0.287
		s-0.428,0.402-0.49,0.633c-0.039,0.152-0.059,0.551-0.059,1.195c0,0.715,0.006,1.379,0.018,1.992
		c0.004,0.184,0.031,0.299,0.083,0.346c0.098,0.09,0.259,0.135,0.483,0.135h0.418v0.34c-0.662-0.027-1.188-0.041-1.579-0.041
		c-0.415,0-0.887,0.014-1.415,0.041v-0.34h0.422c0.289,0,0.458-0.068,0.507-0.202c0.049-0.135,0.073-0.945,0.073-2.432
		c0-0.667-0.008-1.19-0.023-1.568c-0.008-0.124-0.039-0.21-0.094-0.257s-0.209-0.07-0.463-0.07h-0.422v-0.34
		c0.335-0.039,0.635-0.092,0.9-0.158c0.265-0.066,0.562-0.168,0.894-0.305c0.035-0.016,0.068-0.023,0.099-0.023
		c0.062,0,0.094,0.045,0.094,0.135l-0.006,0.223L73.257,84.372z"/>
	<path fill="#333333" d="M87.55,86.106h-3.39l-0.397,0.943c-0.262,0.625-0.393,1.008-0.393,1.148c0,0.09,0.024,0.154,0.073,0.193
		s0.173,0.07,0.372,0.094l0.562,0.064v0.369c-0.375-0.027-0.797-0.041-1.266-0.041c-0.562,0-1.057,0.014-1.482,0.041v-0.369
		l0.176-0.006c0.273-0.008,0.45-0.037,0.53-0.086s0.165-0.168,0.255-0.359c0.277-0.562,0.561-1.17,0.85-1.822l1.611-3.65
		c0.43-0.969,0.723-1.672,0.879-2.109h0.398l2.965,6.896c0.199,0.469,0.332,0.75,0.398,0.846s0.143,0.164,0.229,0.205
		s0.28,0.07,0.581,0.086v0.369c-0.508-0.027-0.993-0.041-1.454-0.041c-0.43,0-1.002,0.014-1.717,0.041v-0.369l0.58-0.035
		c0.207-0.016,0.33-0.037,0.369-0.064c0.059-0.043,0.088-0.098,0.088-0.164c0-0.07-0.059-0.254-0.176-0.551L87.55,86.106z
		 M84.378,85.625h2.952l-1.475-3.521L84.378,85.625z"/>
	<path fill="#333333" d="M93.316,84.582c0.156-0.147,0.327-0.343,0.512-0.585c0.219-0.285,0.422-0.48,0.61-0.586
		s0.386-0.158,0.593-0.158c0.216,0,0.381,0.025,0.494,0.076c0.055,0.023,0.082,0.061,0.082,0.111l-0.006,0.059
		c-0.062,0.316-0.098,0.76-0.105,1.33h-0.264c-0.09-0.199-0.195-0.34-0.318-0.422s-0.27-0.123-0.441-0.123
		c-0.229,0-0.442,0.078-0.639,0.233c-0.197,0.156-0.328,0.374-0.395,0.655s-0.1,0.833-0.1,1.656c0,0.542,0.021,0.998,0.064,1.369
		c0.016,0.137,0.055,0.223,0.117,0.258c0.148,0.082,0.367,0.123,0.656,0.123h0.352v0.34c-0.598-0.027-1.164-0.041-1.699-0.041
		c-0.52,0-1.033,0.014-1.541,0.041v-0.34l0.562-0.047c0.199-0.016,0.325-0.053,0.378-0.111s0.087-0.248,0.103-0.568
		c0.027-0.562,0.041-1.23,0.041-2.004c0-0.941-0.037-1.494-0.111-1.658c-0.051-0.105-0.211-0.158-0.48-0.158h-0.492v-0.34
		c0.379-0.043,0.717-0.1,1.014-0.168s0.561-0.154,0.791-0.26c0.055-0.027,0.1-0.041,0.135-0.041c0.043,0,0.072,0.012,0.088,0.035
		s0.023,0.076,0.023,0.158L93.316,84.582z"/>
	<path fill="#333333" d="M100.724,88.086l0.158,0.141l-0.24,0.375c-0.266,0.145-0.539,0.252-0.82,0.324s-0.568,0.109-0.861,0.109
		c-0.574,0-1.061-0.109-1.461-0.328s-0.711-0.535-0.93-0.949s-0.328-0.906-0.328-1.477c0-0.504,0.084-0.943,0.252-1.316
		s0.404-0.664,0.707-0.875s0.68-0.418,1.133-0.621c0.32-0.145,0.678-0.217,1.072-0.217c0.301,0,0.561,0.023,0.777,0.073
		c0.217,0.049,0.449,0.136,0.699,0.261c-0.098,0.518-0.15,1.035-0.158,1.553h-0.369v-0.293c0-0.25-0.035-0.428-0.107-0.531
		s-0.238-0.205-0.496-0.307s-0.539-0.152-0.844-0.152c-0.527,0-0.934,0.16-1.219,0.482s-0.428,0.803-0.428,1.442
		c0,0.823,0.211,1.482,0.633,1.978c0.379,0.449,0.867,0.674,1.465,0.674c0.234,0,0.465-0.029,0.691-0.088
		S100.501,88.2,100.724,88.086z"/>
	<path fill="#333333" d="M103.792,84.366l0.768-0.674c0.18-0.168,0.356-0.283,0.53-0.346s0.384-0.094,0.63-0.094
		c0.434,0,0.81,0.086,1.128,0.26s0.539,0.396,0.662,0.668s0.185,0.734,0.185,1.387l-0.035,1.734c0,0.391,0.016,0.699,0.047,0.926
		c0.012,0.094,0.044,0.164,0.097,0.211s0.167,0.078,0.343,0.094l0.445,0.047v0.34c-0.379-0.027-0.748-0.041-1.107-0.041
		c-0.309,0-0.615,0.014-0.92,0.041c0.07-0.98,0.105-1.945,0.105-2.895c0-0.637-0.04-1.068-0.12-1.295s-0.224-0.406-0.431-0.539
		s-0.469-0.199-0.785-0.199c-0.324,0-0.619,0.076-0.885,0.23s-0.449,0.334-0.551,0.537c-0.07,0.145-0.105,0.488-0.105,1.031v1.02
		c0,0.93,0.021,1.443,0.064,1.541s0.199,0.158,0.469,0.182l0.51,0.047v0.34c-0.609-0.027-1.1-0.041-1.471-0.041
		c-0.387,0-0.893,0.014-1.518,0.041v-0.34l0.369-0.047c0.23-0.027,0.375-0.061,0.434-0.098s0.098-0.121,0.117-0.254
		c0.027-0.211,0.041-0.684,0.041-1.417v-3.952c0-1.042-0.027-1.625-0.082-1.75c-0.035-0.086-0.193-0.129-0.475-0.129h-0.404v-0.357
		c0.605-0.062,1.09-0.15,1.453-0.264l0.48-0.164c0.062,0,0.094,0.041,0.094,0.123l-0.018,0.239l-0.035,1.054
		c-0.02,0.529-0.029,0.941-0.029,1.234V84.366z"/>
	<path fill="#333333" d="M111.23,83.229l0.141,0.088c-0.027,0.293-0.045,0.615-0.053,0.967c-0.027,1.141-0.041,1.982-0.041,2.525
		c0,0.508,0.018,0.941,0.053,1.301c0.016,0.141,0.053,0.238,0.111,0.293s0.199,0.096,0.422,0.123l0.398,0.053v0.34
		c-0.57-0.027-1.09-0.041-1.559-0.041c-0.461,0-0.926,0.014-1.395,0.041v-0.34l0.504-0.053c0.195-0.016,0.315-0.053,0.36-0.109
		s0.073-0.246,0.085-0.566c0.02-0.498,0.029-1.184,0.029-2.057c0-0.607-0.01-1.074-0.029-1.404
		c-0.008-0.121-0.042-0.207-0.103-0.258s-0.196-0.076-0.407-0.076h-0.439v-0.34c0.477-0.07,0.827-0.134,1.052-0.191
		C110.584,83.465,110.875,83.368,111.23,83.229z M110.761,80.633c0.18,0,0.334,0.064,0.463,0.195s0.193,0.289,0.193,0.473
		s-0.064,0.34-0.193,0.469s-0.283,0.193-0.463,0.193c-0.184,0-0.34-0.064-0.469-0.193s-0.193-0.285-0.193-0.469
		s0.064-0.342,0.193-0.473S110.578,80.633,110.761,80.633z"/>
	<path fill="#333333" d="M115.041,84.313v2.3c0,0.599,0.02,0.981,0.059,1.149c0.039,0.169,0.119,0.3,0.238,0.395
		c0.119,0.094,0.27,0.141,0.453,0.141c0.113,0,0.225-0.023,0.332-0.068s0.213-0.111,0.318-0.201l0.17,0.203l-0.57,0.67
		c-0.125,0.043-0.248,0.076-0.365,0.1s-0.231,0.035-0.342,0.035c-0.29,0-0.535-0.053-0.735-0.156s-0.345-0.238-0.436-0.404
		s-0.136-0.416-0.136-0.752l0.023-1.131v-2.227c-0.301,0-0.611,0.014-0.932,0.041v-0.252c0.336-0.129,0.646-0.264,0.932-0.404
		c-0.004-0.559-0.02-1.164-0.047-1.816c0.456-0.191,0.783-0.346,0.984-0.463l0.152,0.117c-0.031,0.305-0.064,1.025-0.1,2.162
		c0.477,0,0.865-0.006,1.166-0.018l0.469-0.023l-0.064,0.604l-0.24-0.006l-1.125,0.006H115.041z"/>
	<path fill="#333333" d="M118.588,86.083c0.02,0.77,0.216,1.354,0.591,1.752s0.865,0.598,1.475,0.598
		c0.273,0,0.544-0.045,0.812-0.135c0.27-0.09,0.537-0.225,0.802-0.404l0.1,0.088l-0.188,0.492c-0.324,0.188-0.658,0.328-1.002,0.422
		s-0.697,0.141-1.061,0.141c-0.793,0-1.433-0.252-1.919-0.754s-0.729-1.182-0.729-2.041c0-0.656,0.137-1.225,0.41-1.705
		c0.18-0.316,0.512-0.609,0.996-0.879s0.955-0.404,1.412-0.404c0.691,0,1.239,0.203,1.644,0.609s0.606,0.975,0.606,1.705
		l-0.012,0.346c-0.257,0.062-0.503,0.104-0.737,0.123c-0.418,0.031-0.996,0.047-1.737,0.047H118.588z M118.6,85.643
		c0.605,0.027,1.273,0.041,2.004,0.041c0.293,0,0.576-0.014,0.85-0.041v-0.328c0-0.344-0.068-0.67-0.205-0.979
		c-0.086-0.191-0.236-0.352-0.451-0.479s-0.463-0.189-0.744-0.189c-0.438,0-0.787,0.16-1.049,0.48S118.608,84.967,118.6,85.643z"/>
	<path fill="#333333" d="M127.99,88.086l0.158,0.141l-0.24,0.375c-0.266,0.145-0.539,0.252-0.82,0.324s-0.568,0.109-0.861,0.109
		c-0.574,0-1.062-0.109-1.462-0.328s-0.71-0.535-0.929-0.949s-0.328-0.906-0.328-1.477c0-0.504,0.084-0.943,0.252-1.316
		s0.403-0.664,0.706-0.875s0.681-0.418,1.134-0.621c0.32-0.145,0.678-0.217,1.072-0.217c0.301,0,0.56,0.023,0.776,0.073
		c0.217,0.049,0.45,0.136,0.7,0.261c-0.098,0.518-0.15,1.035-0.158,1.553h-0.369v-0.293c0-0.25-0.036-0.428-0.108-0.531
		s-0.237-0.205-0.495-0.307s-0.539-0.152-0.844-0.152c-0.527,0-0.934,0.16-1.219,0.482s-0.428,0.803-0.428,1.442
		c0,0.823,0.211,1.482,0.633,1.978c0.379,0.449,0.867,0.674,1.465,0.674c0.234,0,0.465-0.029,0.691-0.088
		S127.767,88.2,127.99,88.086z"/>
	<path fill="#333333" d="M131.109,84.313v2.3c0,0.599,0.02,0.981,0.059,1.149c0.039,0.169,0.119,0.3,0.238,0.395
		c0.119,0.094,0.27,0.141,0.453,0.141c0.113,0,0.225-0.023,0.332-0.068s0.213-0.111,0.318-0.201l0.17,0.203l-0.57,0.67
		c-0.125,0.043-0.248,0.076-0.365,0.1s-0.231,0.035-0.342,0.035c-0.29,0-0.535-0.053-0.735-0.156s-0.345-0.238-0.436-0.404
		s-0.136-0.416-0.136-0.752l0.023-1.131v-2.227c-0.301,0-0.611,0.014-0.932,0.041v-0.252c0.336-0.129,0.646-0.264,0.932-0.404
		c-0.004-0.559-0.02-1.164-0.047-1.816c0.456-0.191,0.783-0.346,0.984-0.463l0.152,0.117c-0.031,0.305-0.064,1.025-0.1,2.162
		c0.477,0,0.865-0.006,1.166-0.018l0.469-0.023l-0.064,0.604l-0.24-0.006l-1.125,0.006H131.109z"/>
	<path fill="#333333" d="M134.094,87.125v0.382c0,0.306,0.027,0.496,0.082,0.571c0.102,0.125,0.3,0.246,0.595,0.364
		s0.599,0.177,0.911,0.177c0.402,0,0.73-0.109,0.984-0.326s0.381-0.477,0.381-0.777c0-0.238-0.074-0.43-0.223-0.574
		s-0.432-0.261-0.85-0.347c-0.777-0.156-1.291-0.293-1.541-0.411c-0.25-0.117-0.438-0.273-0.562-0.469s-0.188-0.432-0.188-0.709
		c0-0.521,0.188-0.943,0.566-1.268s0.912-0.486,1.604-0.486c0.548,0,1.094,0.109,1.638,0.328c-0.034,0.266-0.062,0.711-0.082,1.336
		h-0.352c-0.008-0.344-0.045-0.57-0.11-0.68c-0.09-0.145-0.254-0.275-0.492-0.393c-0.237-0.117-0.49-0.176-0.76-0.176
		c-0.354,0-0.638,0.09-0.851,0.272c-0.212,0.182-0.318,0.409-0.318,0.683c0,0.263,0.084,0.461,0.252,0.594
		c0.168,0.137,0.633,0.281,1.395,0.434c0.562,0.113,0.934,0.219,1.113,0.316s0.324,0.246,0.434,0.445s0.164,0.428,0.164,0.685
		c0,0.526-0.226,0.981-0.677,1.364s-1.054,0.574-1.808,0.574c-0.48,0-1.02-0.076-1.617-0.226c-0.105-0.027-0.158-0.067-0.158-0.123
		l0.018-0.082c0.016-0.059,0.029-0.163,0.041-0.312c0.035-0.379,0.053-0.676,0.053-0.887l-0.006-0.281H134.094z"/>
</g>
<g>
	<path fill="#7F0D08" d="M106.586,62.11c0-4.445,2.85-7.409,5.813-9.156c-1.406-1.976-1.861-3.534-1.861-5.243
		c0-3.002,3.077-6.991,8.168-6.991c1.938,0,3.572,0.38,4.598,0.95c0.456,0.266,0.494,0.493,0.494,0.949
		c0,1.14-0.152,3.8-0.267,4.369c-0.113,0.57-0.228,0.646-0.38,0.646c-0.189,0-0.228-0.152-0.228-0.722
		c0-0.988-0.228-2.242-1.178-3.229c-0.836-0.874-2.128-1.672-3.8-1.672c-2.279,0-4.825,1.405-4.825,4.977
		c0,2.964,2.052,5.434,6.003,9.727c1.292,1.406,5.966,5.775,7.182,6.802c1.063-1.444,1.938-3.99,1.938-6.308
		c0-0.569-0.152-1.292-0.722-1.861c-0.494-0.494-1.292-0.608-1.862-0.608c-0.228,0-0.456-0.076-0.456-0.266
		c0-0.19,0.305-0.266,0.608-0.266c0.912,0,2.432,0.038,4.56,0.266c0.569,0.076,0.684,0.38,0.684,0.76
		c0,3.078-2.09,6.915-3.762,8.967c2.508,2.128,4.18,3.153,5.243,3.762c1.216,0.722,3.153,1.481,4.521,1.481
		c0.342,0,0.532,0.038,0.532,0.266c0,0.152-0.304,0.267-0.646,0.267h-3.723c-2.812,0-3.724-0.267-7.903-3.571
		c-0.874,0.873-3.875,4.103-9.498,4.103C109.17,70.506,106.586,65.416,106.586,62.11z M124.331,65.681
		c-2.128-1.747-5.89-5.356-6.877-6.421c-0.988-1.063-3.42-3.762-4.483-5.319c-1.977,1.292-3.42,3.344-3.42,6.384
		c0,4.749,3.344,8.168,7.599,8.168C120.683,68.493,123.039,67.011,124.331,65.681z"/>
</g>
<g>
</g>
<g>
</g>
<g>
</g>
<g>
</g>
<g>
</g>
<g>
</g>
</svg>
